<?xml version="1.0" encoding="UTF-8" standalone="no"?>
<!-- Created with Inkscape (http://www.inkscape.org/) -->

<svg
   version="1.1"
   id="svg2"
   xml:space="preserve"
   width="163.07771"
   height="160.5493"
   viewBox="0 0 163.07772 160.5493"
   xmlns="http://www.w3.org/2000/svg"
   xmlns:svg="http://www.w3.org/2000/svg"><defs
     id="defs6" /><g
     id="g8"
     transform="matrix(1.3333333,0,0,-1.3333333,-1141.7071,237.38493)"><g
       id="g2851"
       transform="rotate(-14.316056,916.55531,117.15529)"><g
         id="g412"
         transform="translate(951.5862,184.4995)"><path
           d="M 0,0 C 0.909,0.127 1.778,0.229 2.579,0.311 1.791,0.24 0.934,0.15 -0.008,0.017 Z"
           style="fill:#b87433;fill-opacity:1;fill-rule:nonzero;stroke:none"
           id="path414" /></g><g
         id="g416"
         transform="translate(924.5225,163.6173)"><path
           d="M 0,0 C 0.217,0.488 0.434,0.977 0.67,1.496 0.441,1.015 0.214,0.528 -0.013,0.034 Z"
           style="fill:#b87433;fill-opacity:1;fill-rule:nonzero;stroke:none"
           id="path418" /></g><g
         id="g420"
         transform="translate(926.783,168.3249)"><path
           d="m 0,0 c -0.116,-0.226 -0.231,-0.453 -0.346,-0.682 0.297,0.569 0.596,1.124 0.899,1.649 L 0.536,1.003 C 0.352,0.674 0.174,0.34 0,0"
           style="fill:#b87433;fill-opacity:1;fill-rule:nonzero;stroke:none"
           id="path422" /></g><g
         id="g424"
         transform="translate(928.5449,171.3307)"><path
           d="M 0,0 0.025,-0.054 C 0.469,0.617 0.92,1.242 1.377,1.836 L 1.361,1.869 C 0.887,1.271 0.433,0.648 0,0"
           style="fill:#b87433;fill-opacity:1;fill-rule:nonzero;stroke:none"
           id="path426" /></g><g
         id="g428"
         transform="translate(949.0723,184.0939)"><path
           d="M 0,0 C 0.057,0.011 0.114,0.02 0.17,0.03 L 0.168,0.035 C 0.113,0.024 0.055,0.011 0,0"
           style="fill:#b87433;fill-opacity:1;fill-rule:nonzero;stroke:none"
           id="path430" /></g><g
         id="g432"
         transform="translate(939.4424,180.9168)"><path
           d="M 0,0 C 0.137,0.066 0.274,0.132 0.412,0.196 L 0.402,0.213 C 0.265,0.146 0.135,0.068 0,0"
           style="fill:#b87433;fill-opacity:1;fill-rule:nonzero;stroke:none"
           id="path434" /></g><g
         id="g436"
         transform="translate(941.924,182.0455)"><path
           d="M 0,0 0.019,-0.034 C 0.797,0.275 1.585,0.567 2.388,0.845 2.168,0.776 1.948,0.705 1.726,0.631 1.144,0.436 0.568,0.226 0,0"
           style="fill:#b87433;fill-opacity:1;fill-rule:nonzero;stroke:none"
           id="path438" /></g><g
         id="g440"
         transform="translate(922.5306,158.9726)"><path
           d="M 0,0 0.011,-0.031 C 0.257,0.583 0.522,1.229 0.81,1.913 L 0.791,1.963 C 0.524,1.324 0.26,0.67 0,0"
           style="fill:#b87433;fill-opacity:1;fill-rule:nonzero;stroke:none"
           id="path442" /></g><g
         id="g444"
         transform="translate(879.9525,91.6349)"><path
           d="M 0,0 C 0.539,0.256 0.767,0.9 0.511,1.439 0.458,1.552 0.387,1.651 0.304,1.735 -0.964,0.95 -2.075,0.197 -3.103,-0.556 l 2.058,0.621 C -0.741,-0.128 -0.349,-0.166 0,0"
           style="fill:#f3a95f;fill-opacity:1;fill-rule:nonzero;stroke:none"
           id="path446" /></g><g
         id="g448"
         transform="translate(880.8724,69.3951)"><path
           d="m 0,0 c -0.285,0.599 -1.001,0.853 -1.599,0.568 -0.599,-0.284 -0.854,-1 -0.569,-1.599 0.285,-0.598 1.001,-0.853 1.599,-0.568 0.122,0.058 0.23,0.134 0.322,0.223 l 4.859,-1.565 c -0.246,-0.642 -0.507,-1.252 -0.769,-1.86 0.446,1.019 0.868,2.068 1.238,3.137 l -5.04,1.567 C 0.028,-0.064 0.015,-0.032 0,0"
           style="fill:#f3a95f;fill-opacity:1;fill-rule:nonzero;stroke:none"
           id="path450" /></g><g
         id="g452"
         transform="translate(879.3304,62.8705)"><path
           d="m 0,0 c -0.308,0.646 -1.081,0.921 -1.727,0.614 -0.646,-0.307 -0.921,-1.08 -0.614,-1.727 0.307,-0.646 1.081,-0.921 1.727,-0.614 0.031,0.015 0.061,0.031 0.091,0.048 l 3.294,-1.807 c 0.226,0.401 0.456,0.82 0.687,1.251 L 0.125,-0.519 C 0.121,-0.344 0.08,-0.168 0,0"
           style="fill:#c9507e;fill-opacity:1;fill-rule:nonzero;stroke:none"
           id="path454" /></g><g
         id="g456"
         transform="translate(878.4617,59.5774)"><path
           d="m 0,0 c -0.302,0.633 -1.06,0.903 -1.693,0.602 -0.634,-0.301 -0.903,-1.06 -0.602,-1.693 0.257,-0.542 0.849,-0.817 1.411,-0.698 L 1.565,-3.622 C 1.117,-4.306 0.676,-4.955 0.249,-5.57 c 0,0 0.917,1.257 2.156,3.276 L 0.112,-0.71 C 0.143,-0.476 0.109,-0.23 0,0"
           style="fill:#f3a95f;fill-opacity:1;fill-rule:nonzero;stroke:none"
           id="path458" /></g><g
         id="g460"
         transform="translate(880.1609,66.1138)"><path
           d="m 0,0 c -0.293,0.617 -1.031,0.879 -1.648,0.586 -0.617,-0.293 -0.879,-1.031 -0.586,-1.648 0.293,-0.617 1.031,-0.879 1.648,-0.586 0.086,0.041 0.166,0.091 0.238,0.148 l 4.126,-1.715 c 0.188,0.391 0.373,0.789 0.556,1.194 L 0.113,-0.398 C 0.098,-0.264 0.061,-0.129 0,0"
           style="fill:#a158a2;fill-opacity:1;fill-rule:nonzero;stroke:none"
           id="path462" /></g><g
         id="g464"
         transform="translate(877.0807,86.4263)"><path
           d="M 0,0 C 0.573,0.273 0.817,0.958 0.545,1.531 0.272,2.104 -0.414,2.348 -0.986,2.075 -1.175,1.986 -1.328,1.851 -1.439,1.69 L -4.177,1.367 C -4.74,0.836 -5.296,0.29 -5.854,-0.288 L -1.37,0.294 C -1.041,-0.093 -0.481,-0.228 0,0"
           style="fill:#a158a2;fill-opacity:1;fill-rule:nonzero;stroke:none"
           id="path466" /></g><g
         id="g468"
         transform="translate(878.4138,89.0296)"><path
           d="M 0,0 C 0.561,0.267 0.8,0.938 0.533,1.499 0.266,2.06 -0.405,2.299 -0.966,2.032 -1.196,1.923 -1.372,1.745 -1.481,1.535 L -2.502,1.342 C -3.3,0.723 -4.049,0.094 -4.769,-0.555 l 3.554,0.717 C -0.888,-0.118 -0.414,-0.197 0,0"
           style="fill:#788cbd;fill-opacity:1;fill-rule:nonzero;stroke:none"
           id="path470" /></g><g
         id="g472"
         transform="translate(874.6135,62.6404)"><path
           d="m 0,0 c -0.252,0.532 -0.848,0.789 -1.396,0.634 l -1.855,0.899 c 0.592,-1.037 1.238,-2.1 1.987,-3.217 0.23,-0.038 0.474,-0.008 0.701,0.1 C 0.03,-1.303 0.282,-0.593 0,0"
           style="fill:#a158a2;fill-opacity:1;fill-rule:nonzero;stroke:none"
           id="path474" /></g><g
         id="g476"
         transform="translate(907.3204,131.5539)"><path
           d="m 0,0 c -0.319,0.671 -1.122,0.956 -1.793,0.637 -0.67,-0.319 -0.956,-1.121 -0.637,-1.792 0.319,-0.671 1.121,-0.956 1.792,-0.637 0.069,0.032 0.133,0.07 0.193,0.111 l 4.32,-1.853 c 0.18,0.426 0.353,0.845 0.522,1.26 L 0.101,-0.296 C 0.079,-0.196 0.046,-0.097 0,0"
           style="fill:#a158a2;fill-opacity:1;fill-rule:nonzero;stroke:none"
           id="path478" /></g><g
         id="g480"
         transform="translate(895.5146,114.2833)"><path
           d="m 0,0 c -0.322,0.678 -1.133,0.966 -1.811,0.644 -0.678,-0.322 -0.967,-1.133 -0.644,-1.811 0.262,-0.553 0.85,-0.847 1.426,-0.762 l 3.388,-3.295 c 0.399,0.35 0.8,0.71 1.205,1.082 L 0.118,-0.776 C 0.155,-0.52 0.12,-0.251 0,0"
           style="fill:#a158a2;fill-opacity:1;fill-rule:nonzero;stroke:none"
           id="path482" /></g><g
         id="g484"
         transform="translate(902.8804,138.0415)"><path
           d="M 0,0 C 0.307,-0.645 1.078,-0.919 1.723,-0.612 2.368,-0.306 2.642,0.466 2.336,1.111 2.277,1.234 2.202,1.343 2.114,1.438 0.73,1.173 -0.622,0.886 -1.937,0.575 L -0.022,0.051 C -0.015,0.034 -0.008,0.017 0,0"
           style="fill:#a158a2;fill-opacity:1;fill-rule:nonzero;stroke:none"
           id="path486" /></g><g
         id="g488"
         transform="translate(900.3358,135.7465)"><path
           d="M 0,0 C 0.307,-0.645 1.078,-0.919 1.723,-0.612 2.368,-0.306 2.642,0.466 2.336,1.111 2.029,1.756 1.258,2.03 0.612,1.723 0.535,1.686 0.464,1.643 0.398,1.594 L -1.477,2.343 C -2.336,2.11 -3.168,1.858 -3.977,1.59 l 3.971,-1.577 z"
           style="fill:#788cbd;fill-opacity:1;fill-rule:nonzero;stroke:none"
           id="path490" /></g><g
         id="g492"
         transform="translate(897.8638,133.4865)"><path
           d="M 0,0 C 0.322,-0.678 1.133,-0.966 1.811,-0.644 2.489,-0.322 2.777,0.489 2.455,1.167 2.134,1.844 1.325,2.132 0.648,1.813 L -2.894,3.357 C -3.614,3.086 -4.316,2.802 -4.98,2.492 L -0.117,0.383 C -0.098,0.253 -0.059,0.124 0,0"
           style="fill:#f3a95f;fill-opacity:1;fill-rule:nonzero;stroke:none"
           id="path494" /></g><g
         id="g496"
         transform="translate(923.9136,159.3478)"><path
           d="M 0,0 C -0.21,-0.402 -0.236,-0.895 -0.026,-1.337 0.328,-2.083 1.221,-2.401 1.967,-2.046 2.713,-1.691 3.03,-0.799 2.676,-0.053 2.52,0.276 2.26,0.521 1.954,0.663 L 0.609,4.269 C 0.179,3.302 -0.214,2.392 -0.573,1.538 Z"
           style="fill:#f3a95f;fill-opacity:1;fill-rule:nonzero;stroke:none"
           id="path498" /></g><g
         id="g500"
         transform="translate(925.1929,165.1129)"><path
           d="M 0,0 C 0.001,0.002 0.002,0.004 0.003,0.006 L 1.074,-2.772 C 0.847,-3.221 0.822,-3.767 1.055,-4.257 c 0.4,-0.84 1.405,-1.197 2.244,-0.798 0.841,0.4 1.198,1.404 0.799,2.244 -0.231,0.486 -0.665,0.81 -1.151,0.92 L 1.242,2.526 c 0,0.001 0.001,0.003 0.002,0.004 C 0.825,1.73 0.41,0.899 0.003,0.006 0.001,0.004 0.001,0.002 0,0"
           style="fill:#788cbd;fill-opacity:1;fill-rule:nonzero;stroke:none"
           id="path502" /></g><g
         id="g504"
         transform="translate(931.9131,152.5349)"><path
           d="M 0,0 C 0.587,0.561 0.778,1.455 0.411,2.228 -0.048,3.192 -1.201,3.602 -2.165,3.144 -3.13,2.686 -3.539,1.533 -3.081,0.568 c 0.28,-0.589 0.82,-0.971 1.417,-1.075 l 1.896,-4.987 c 0.577,0.163 1.163,0.333 1.757,0.511 z"
           style="fill:#f3a95f;fill-opacity:1;fill-rule:nonzero;stroke:none"
           id="path506" /></g><g
         id="g508"
         transform="translate(952.075,178.5221)"><path
           d="M 0,0 C -0.181,-0.483 -0.173,-1.036 0.066,-1.539 0.534,-2.523 1.711,-2.942 2.695,-2.474 3.679,-2.006 4.097,-0.829 3.629,0.155 3.298,0.853 2.61,1.266 1.886,1.281 L -0.489,5.977 C -1.253,5.871 -2.04,5.746 -2.833,5.602 Z"
           style="fill:#a158a2;fill-opacity:1;fill-rule:nonzero;stroke:none"
           id="path510" /></g><g
         id="g512"
         transform="translate(935.8238,154.6133)"><path
           d="M 0,0 C 0.51,0.563 0.66,1.4 0.313,2.128 -0.146,3.092 -1.299,3.502 -2.263,3.044 -3.227,2.586 -3.637,1.432 -3.179,0.468 c 0.305,-0.64 0.915,-1.035 1.573,-1.095 l 2.373,-5.586 c 0.575,0.191 1.152,0.391 1.73,0.596 z"
           style="fill:#c9507e;fill-opacity:1;fill-rule:nonzero;stroke:none"
           id="path514" /></g><g
         id="g516"
         transform="translate(929.2394,165.224)"><path
           d="m 0,0 c -0.209,-0.436 -0.226,-0.958 -0.002,-1.428 0.393,-0.827 1.382,-1.179 2.209,-0.786 0.827,0.393 1.179,1.383 0.785,2.209 -0.247,0.521 -0.731,0.853 -1.261,0.93 l -2.4,5.128 C -1.086,5.425 -1.498,4.769 -1.903,4.067 Z"
           style="fill:#a158a2;fill-opacity:1;fill-rule:nonzero;stroke:none"
           id="path518" /></g><g
         id="g520"
         transform="translate(943.4009,174.8718)"><path
           d="m 0,0 c -0.215,-0.484 -0.225,-1.054 0.02,-1.569 0.446,-0.937 1.566,-1.336 2.504,-0.89 0.937,0.445 1.335,1.566 0.89,2.503 C 3.132,0.637 2.58,1.014 1.976,1.099 L -1.458,7.14 C -2.164,6.86 -2.86,6.561 -3.547,6.241 Z"
           style="fill:#f3a95f;fill-opacity:1;fill-rule:nonzero;stroke:none"
           id="path522" /></g><g
         id="g524"
         transform="translate(954.5723,184.85)"><path
           d="M 0,0 2.336,-4.913 C 2.131,-5.412 2.13,-5.991 2.379,-6.516 c 0.47,-0.988 1.652,-1.408 2.639,-0.938 0.988,0.469 1.408,1.651 0.939,2.639 -0.326,0.684 -0.993,1.096 -1.7,1.128 L 2.426,0.162 C 3.092,0.2 3.575,0.228 3.84,0.276 V 0.277 C 3.838,0.276 2.055,0.213 -0.407,-0.039 -0.275,-0.027 -0.127,-0.011 0,0"
           style="fill:#f3a95f;fill-opacity:1;fill-rule:nonzero;stroke:none"
           id="path526" /></g><g
         id="g528"
         transform="translate(939.7549,156.7353)"><path
           d="M 0,0 C 0.413,0.556 0.513,1.316 0.195,1.984 -0.263,2.949 -1.417,3.359 -2.381,2.9 -3.345,2.442 -3.755,1.288 -3.297,0.324 c 0.334,-0.702 1.037,-1.11 1.766,-1.103 l 2.946,-5.887 c 0.568,0.227 1.131,0.464 1.692,0.707 z"
           style="fill:#a158a2;fill-opacity:1;fill-rule:nonzero;stroke:none"
           id="path530" /></g><g
         id="g532"
         transform="translate(948.4294,153.5788)"><path
           d="m 0,0 c -0.496,-0.28 -0.987,-0.566 -1.493,-0.835 l -3.253,6.241 c 0.417,0.556 0.519,1.32 0.2,1.991 C -5.004,8.362 -6.158,8.771 -7.122,8.313 -8.086,7.854 -8.496,6.701 -8.038,5.737 -7.704,5.036 -7.004,4.628 -6.276,4.634 l 3.154,-6.303 c -0.661,-0.328 -1.335,-0.639 -2.01,-0.946 1.531,0.677 3.02,1.41 4.422,2.204 C -0.471,-0.276 -0.236,-0.138 0,0"
           style="fill:#f3a95f;fill-opacity:1;fill-rule:nonzero;stroke:none"
           id="path534" /></g><g
         id="g536"
         transform="translate(947.6419,161.2755)"><path
           d="M 0,0 C 0.396,0.553 0.487,1.299 0.175,1.957 -0.284,2.921 -1.437,3.331 -2.401,2.872 -3.365,2.414 -3.775,1.261 -3.317,0.297 c 0.34,-0.715 1.063,-1.126 1.807,-1.103 l 3.247,-6.325 c 0.526,0.32 1.045,0.644 1.555,0.974 z"
           style="fill:#c9507e;fill-opacity:1;fill-rule:nonzero;stroke:none"
           id="path538" /></g><g
         id="g540"
         transform="translate(954.8632,157.8465)"><path
           d="M 0,0 -3.161,5.768 C -2.786,6.317 -2.704,7.046 -3.01,7.691 -3.469,8.655 -4.622,9.065 -5.586,8.607 -6.55,8.148 -6.96,6.995 -6.502,6.031 -6.156,5.304 -5.416,4.893 -4.66,4.93 l 3.166,-6.012 C -0.986,-0.723 -0.488,-0.362 0,0"
           style="fill:#a158a2;fill-opacity:1;fill-rule:nonzero;stroke:none"
           id="path542" /></g><g
         id="g544"
         transform="translate(872.5977,69.0643)"><path
           d="m 0,0 c -0.031,-0.015 -0.061,-0.031 -0.09,-0.048 l -3.802,1.273 -0.149,0.101 c 0.215,-0.664 0.458,-1.334 0.736,-2.013 l 0.127,-0.014 2.538,-0.778 c 0.016,-0.051 0.036,-0.102 0.06,-0.153 0.291,-0.611 1.021,-0.87 1.632,-0.58 0.611,0.29 0.87,1.021 0.58,1.632 C 1.342,0.031 0.611,0.29 0,0"
           style="fill:#f3a95f;fill-opacity:1;fill-rule:nonzero;stroke:none"
           id="path546" /></g><g
         id="g548"
         transform="translate(872.6885,66.2911)"><path
           d="m 0,0 v 0 l -3.027,1.466 -0.13,0.062 c 0.315,-0.727 0.659,-1.463 1.051,-2.217 l 1.378,-0.604 c 0.015,-0.142 0.053,-0.285 0.118,-0.422 0.306,-0.642 1.074,-0.915 1.716,-0.61 0.642,0.306 0.914,1.073 0.609,1.715 C 1.41,0.032 0.642,0.305 0,0"
           style="fill:#788cbd;fill-opacity:1;fill-rule:nonzero;stroke:none"
           id="path550" /></g><g
         id="g552"
         transform="translate(872.6507,74.7958)"><path
           d="m 0,0 c -0.142,-0.068 -0.265,-0.157 -0.369,-0.263 l -4.822,1.1 c 0.048,-0.507 0.118,-1.01 0.198,-1.514 h 0.006 l 4.304,-0.859 c 0.019,-0.062 0.043,-0.124 0.072,-0.184 0.305,-0.644 1.075,-0.917 1.719,-0.611 0.644,0.306 0.918,1.076 0.611,1.719 C 1.414,0.032 0.644,0.306 0,0"
           style="fill:#788cbd;fill-opacity:1;fill-rule:nonzero;stroke:none"
           id="path554" /></g><g
         id="g556"
         transform="translate(872.5047,72.0274)"><path
           d="M 0,0 C -0.065,-0.031 -0.127,-0.067 -0.185,-0.108 L -4.629,1.08 -4.674,1.108 c 0.123,-0.61 0.278,-1.223 0.452,-1.838 l 0.097,-0.018 0.715,-0.171 2.769,-0.664 c 0.012,-0.034 0.027,-0.067 0.042,-0.1 0.3,-0.63 1.054,-0.898 1.684,-0.599 0.63,0.3 0.898,1.053 0.598,1.684 C 1.384,0.031 0.63,0.3 0,0"
           style="fill:#a158a2;fill-opacity:1;fill-rule:nonzero;stroke:none"
           id="path558" /></g><g
         id="g560"
         transform="translate(872.9659,77.822)"><path
           d="m 0,0 c -0.187,-0.089 -0.345,-0.216 -0.467,-0.367 l -4.97,0.682 -0.049,0.046 c -0.045,-0.484 -0.066,-0.983 -0.056,-1.496 l 4.888,-0.613 c 0.006,-0.013 0.012,-0.027 0.018,-0.04 0.319,-0.669 1.119,-0.954 1.789,-0.636 0.669,0.318 0.954,1.119 0.635,1.788 C 1.47,0.034 0.669,0.318 0,0"
           style="fill:#f3a95f;fill-opacity:1;fill-rule:nonzero;stroke:none"
           id="path562" /></g><g
         id="g564"
         transform="translate(873.509,80.5035)"><path
           d="m 0,0 c -0.176,-0.084 -0.325,-0.203 -0.44,-0.345 l -4.993,0.384 -0.116,0.055 c -0.135,-0.455 -0.244,-0.929 -0.33,-1.418 l 0.087,-0.002 5.257,-0.486 C -0.2,-2.357 0.499,-2.573 1.09,-2.292 1.723,-1.991 1.991,-1.234 1.691,-0.601 1.39,0.032 0.633,0.301 0,0"
           style="fill:#a158a2;fill-opacity:1;fill-rule:nonzero;stroke:none"
           id="path566" /></g><g
         id="g568"
         transform="translate(874.1245,83.2224)"><path
           d="m 0,0 c -0.225,-0.107 -0.404,-0.271 -0.529,-0.467 l -4.506,0.237 -0.121,0.056 c -0.25,-0.464 -0.471,-0.956 -0.67,-1.468 l 0.141,-0.009 5.17,-0.211 c 0.346,-0.521 1.031,-0.722 1.613,-0.446 0.637,0.303 0.908,1.065 0.605,1.703 C 1.4,0.032 0.638,0.303 0,0"
           style="fill:#788cbd;fill-opacity:1;fill-rule:nonzero;stroke:none"
           id="path570" /></g><g
         id="g572"
         transform="translate(875.1402,86.0297)"><path
           d="m 0,0 c -0.267,-0.127 -0.472,-0.333 -0.599,-0.577 l -3.936,-0.086 -0.067,0.002 c -0.374,-0.447 -0.726,-0.938 -1.059,-1.458 l 0.117,-0.019 5.059,0.171 c 0.365,-0.489 1.036,-0.669 1.609,-0.397 0.653,0.31 0.93,1.091 0.62,1.744 C 1.434,0.033 0.653,0.31 0,0"
           style="fill:#f3a95f;fill-opacity:1;fill-rule:nonzero;stroke:none"
           id="path574" /></g><g
         id="g576"
         transform="translate(883.4357,84.0618)"><path
           d="M 0,0 C 0.178,0.085 0.325,0.209 0.436,0.357 L 5.289,0.641 V 0.64 C 5.286,1.075 5.28,1.515 5.268,1.967 L 0.488,1.685 C 0.176,2.181 -0.465,2.377 -1.007,2.119 -1.592,1.84 -1.841,1.141 -1.563,0.556 -1.285,-0.029 -0.585,-0.278 0,0"
           style="fill:#a158a2;fill-opacity:1;fill-rule:nonzero;stroke:none"
           id="path578" /></g><g
         id="g580"
         transform="translate(882.2963,77.5292)"><path
           d="m 0,0 c 0.18,0.085 0.329,0.209 0.444,0.355 l 5.52,-0.521 0.034,-0.002 C 6.055,0.264 6.107,0.706 6.154,1.155 L 6.123,1.159 0.607,1.607 C 0.6,1.622 0.594,1.637 0.587,1.651 0.293,2.269 -0.446,2.532 -1.064,2.238 -1.682,1.944 -1.945,1.205 -1.651,0.587 -1.357,-0.031 -0.618,-0.294 0,0"
           style="fill:#f3a95f;fill-opacity:1;fill-rule:nonzero;stroke:none"
           id="path582" /></g><g
         id="g584"
         transform="translate(882.9576,80.8016)"><path
           d="M 0,0 C 0.19,0.09 0.345,0.223 0.462,0.381 L 5.663,0.257 5.68,0.249 C 5.704,0.683 5.723,1.126 5.737,1.577 L 5.73,1.574 0.589,1.616 0.581,1.633 C 0.29,2.245 -0.441,2.505 -1.052,2.214 -1.664,1.923 -1.923,1.192 -1.633,0.581 -1.343,-0.031 -0.611,-0.29 0,0"
           style="fill:#c9507e;fill-opacity:1;fill-rule:nonzero;stroke:none"
           id="path586" /></g><g
         id="g588"
         transform="translate(887.0996,71.4286)"><path
           d="m 0,0 -0.012,0.002 -5.386,1.061 c -0.016,0.05 -0.036,0.1 -0.059,0.15 C -5.749,1.826 -6.483,2.086 -7.096,1.795 -7.71,1.503 -7.97,0.77 -7.679,0.156 c 0.292,-0.613 1.026,-0.874 1.639,-0.582 0.094,0.045 0.18,0.1 0.257,0.163 l 5.364,-1.188 C -0.648,-2.221 -0.891,-2.969 -1.147,-3.697 -0.729,-2.488 -0.344,-1.265 0,0"
           style="fill:#c9507e;fill-opacity:1;fill-rule:nonzero;stroke:none"
           id="path590" /></g><g
         id="g592"
         transform="translate(881.797,74.2482)"><path
           d="m 0,0 c 0.156,0.074 0.289,0.177 0.397,0.299 l 5.445,-0.786 0.021,-0.049 c 0.093,0.427 0.179,0.863 0.262,1.304 L 6.09,0.769 0.641,1.532 C 0.626,1.574 0.609,1.617 0.589,1.658 0.294,2.279 -0.448,2.543 -1.069,2.248 -1.69,1.953 -1.953,1.21 -1.659,0.59 -1.364,-0.031 -0.621,-0.295 0,0"
           style="fill:#a158a2;fill-opacity:1;fill-rule:nonzero;stroke:none"
           id="path594" /></g><g
         id="g596"
         transform="translate(884.7539,93.6218)"><path
           d="M 0,0 C 0.346,0.164 0.571,0.481 0.632,0.832 L 2.997,1.649 3.08,1.677 C 2.974,2.257 2.874,2.731 2.789,3.1 L 2.734,3.08 0.16,1.959 C -0.061,2.113 -0.334,2.184 -0.606,2.155 -0.872,1.991 -1.154,1.817 -1.443,1.638 -1.647,1.318 -1.689,0.905 -1.514,0.538 -1.244,-0.028 -0.567,-0.269 0,0"
           style="fill:#c9507e;fill-opacity:1;fill-rule:nonzero;stroke:none"
           id="path598" /></g><g
         id="g600"
         transform="translate(884.3463,90.4785)"><path
           d="m 0,0 c 0.294,0.14 0.507,0.382 0.616,0.663 l 3.3,0.695 0.062,0.005 C 3.927,1.84 3.874,2.296 3.818,2.714 L 3.738,2.69 0.498,1.784 C 0.166,2.288 -0.494,2.483 -1.054,2.217 -1.666,1.926 -1.926,1.193 -1.635,0.582 -1.344,-0.03 -0.612,-0.291 0,0"
           style="fill:#a158a2;fill-opacity:1;fill-rule:nonzero;stroke:none"
           id="path602" /></g><g
         id="g604"
         transform="translate(888.6107,88.2687)"><path
           d="M 0,0 C -0.029,0.522 -0.06,1.025 -0.097,1.503 L -0.127,1.491 -4.151,0.725 C -4.465,1.268 -5.148,1.487 -5.724,1.214 -6.33,0.925 -6.587,0.201 -6.299,-0.405 c 0.288,-0.606 1.013,-0.863 1.618,-0.575 0.248,0.118 0.438,0.309 0.556,0.536 l 4.112,0.457 z"
           style="fill:#f3a95f;fill-opacity:1;fill-rule:nonzero;stroke:none"
           id="path606" /></g><g
         id="g608"
         transform="translate(911.7563,129.3731)"><path
           d="m 0,0 c -0.013,-0.031 -0.025,-0.064 -0.037,-0.095 l -0.002,0.001 c -0.169,-0.414 -0.342,-0.833 -0.522,-1.259 -3.088,-7.297 -5.841,-11.771 -10.475,-16.325 -0.533,-0.548 -1.072,-1.074 -1.615,-1.579 l -0.026,0.025 c -0.405,-0.371 -0.807,-0.732 -1.206,-1.082 l 0.027,-0.026 c -0.599,-0.521 -1.204,-1.022 -1.814,-1.506 l -0.004,0.006 c -4.171,-3.437 -7.517,-5.463 -7.517,-5.463 0,0 -0.02,0.055 -0.054,0.159 -0.023,-0.015 -0.047,-0.031 -0.07,-0.046 -0.087,0.4 -0.166,0.781 -0.249,1.17 -0.368,1.418 -0.97,4.111 -1.621,8.582 -0.967,6.647 -1.24,9.404 -0.633,14.038 0.751,5.729 4.018,8.637 6.945,10.005 0.664,0.311 1.366,0.594 2.086,0.866 l -0.082,0.036 c 0.439,0.173 0.895,0.339 1.368,0.497 l 0.104,-0.041 c 0.808,0.268 1.64,0.52 2.499,0.753 l -0.091,0.037 c 0.671,0.178 1.368,0.349 2.093,0.513 l 0.083,-0.022 c 1.315,0.31 2.667,0.597 4.051,0.863 4.49,0.862 10.69,1.787 10.69,1.787 C 3.928,11.894 2.756,6.797 0,0 m -23.053,-43.344 c 0.212,-7.921 -0.993,-13.209 -2.75,-18.298 -0.37,-1.069 -0.792,-2.118 -1.238,-3.137 -0.071,-0.165 -0.136,-0.343 -0.208,-0.506 l -0.013,0.005 c -0.182,-0.405 -0.368,-0.803 -0.556,-1.195 l 0.019,-0.008 c -0.374,-0.785 -0.756,-1.541 -1.145,-2.267 l -0.024,0.012 c -0.231,-0.431 -0.461,-0.85 -0.687,-1.251 l 0.02,-0.01 c -0.415,-0.729 -0.833,-1.428 -1.248,-2.095 l -0.007,0.005 c -1.239,-2.02 -2.156,-3.277 -2.156,-3.277 0,0 -1.618,1.363 -5.361,6.949 -0.749,1.118 -1.395,2.18 -1.987,3.217 l -0.178,0.087 c -0.046,0.091 -0.089,0.178 -0.127,0.262 -0.165,0.366 -0.326,0.727 -0.483,1.083 l 0.008,-0.003 c -1.846,3.553 -2.809,6.744 -3.123,10.031 -0.029,0.359 -0.044,0.711 -0.042,1.055 l 0.006,-10e-4 c -0.075,4.128 1.732,7.31 3.803,9.451 0.559,0.578 1.114,1.124 1.678,1.656 l -0.131,-0.016 c 0.233,0.225 0.473,0.447 0.718,0.666 l 0.153,0.031 c 0.72,0.649 1.47,1.277 2.268,1.897 l -0.074,-0.014 c 0.316,0.237 0.639,0.473 0.968,0.708 l 0.043,0.013 c 1.028,0.753 2.139,1.506 3.407,2.291 0.988,0.628 2.011,1.258 3.059,1.9 -0.002,-0.003 -0.002,-0.007 -0.005,-0.01 0.29,0.179 0.572,0.353 0.837,0.517 -10e-4,0 -0.002,0 -0.003,0 1.027,0.629 2.076,1.271 3.139,1.936 0,0 1.208,-3.742 1.42,-11.684 m 62.883,98.47 -0.009,0.017 c 0.943,0.133 1.799,0.224 2.588,0.295 2.462,0.252 4.245,0.315 4.247,0.315 L 45.522,59.62 C 44.946,59.667 14.052,62.017 5.832,21.778 5.754,21.756 5.676,21.726 5.6,21.69 4.834,21.326 4.508,20.409 4.872,19.643 4.982,19.413 5.141,19.223 5.331,19.078 5.259,18.656 5.184,18.236 5.117,17.805 4.577,18.528 3.585,18.795 2.739,18.393 1.952,18.019 1.534,17.181 1.656,16.361 1.383,16.359 1.107,16.299 0.844,16.174 0.053,15.798 -0.365,14.955 -0.237,14.132 -0.508,14.089 -0.777,14.047 -1.045,14.004 -1.408,14.475 -2.063,14.646 -2.623,14.38 -2.948,14.225 -3.18,13.952 -3.289,13.636 -24.312,10.089 -31.616,5.597 -26.792,-20.875 l 1.562,-7.55 -2.101,-1.359 c 0.005,10e-4 0.011,0 0.016,10e-4 -0.459,-0.302 -0.92,-0.609 -1.381,-0.921 -0.007,0.008 -0.017,0.013 -0.025,0.02 l -1.59,-1.029 c 0.007,-0.018 0.006,-0.036 0.014,-0.054 0.005,-0.01 0.01,-0.02 0.015,-0.029 -2.616,-1.839 -5.258,-3.898 -7.898,-6.423 -13.975,-11.993 -8.019,-20.326 -0.725,-32.504 v 0.001 l 4.304,-6.845 c -0.111,-0.154 -0.219,-0.306 -0.325,-0.456 l -10e-4,0.002 -0.746,-1.041 0.006,-0.012 c -0.219,-0.317 -0.425,-0.62 -0.615,-0.91 l -0.006,0.012 c 0.004,0.018 0,0.037 0.003,0.055 l -0.935,-1.305 0.074,-0.213 -0.022,-0.043 1.054,-2.617 c 3.916,5.91 19.476,23.423 13.52,53.628 11.516,7.424 24.161,18.041 28.602,42.703 v 10e-4 c 2.186,0.363 4.488,0.758 6.915,1.203 13.901,1.686 28.312,8.839 37.512,18.125 2.176,1.977 4.811,4.609 5.798,5.542 l -1.052,2.214 C 55.179,39.32 51.468,35.115 45.682,30.463 l 0.002,-0.003 c -0.82,-0.703 -1.669,-1.386 -2.545,-2.046 l -0.032,0.059 c -0.488,-0.361 -0.986,-0.722 -1.494,-1.081 l 0.034,-0.066 c -0.796,-0.56 -1.611,-1.103 -2.444,-1.628 l -0.026,0.047 c -0.51,-0.329 -1.028,-0.654 -1.554,-0.973 l 0.014,-0.028 c -0.316,-0.186 -0.644,-0.357 -0.964,-0.538 -0.236,-0.138 -0.471,-0.276 -0.71,-0.411 -1.402,-0.794 -2.891,-1.527 -4.422,-2.204 -0.144,-0.065 -0.284,-0.137 -0.429,-0.202 l -0.007,0.014 c -0.56,-0.243 -1.124,-0.48 -1.691,-0.707 l 0.015,-0.031 C 28.493,20.278 27.547,19.91 26.592,19.562 l -0.027,0.061 c -0.578,-0.205 -1.156,-0.405 -1.73,-0.596 l 0.029,-0.069 c -0.892,-0.299 -1.789,-0.58 -2.692,-0.843 l -0.026,0.064 C 21.552,18.001 20.965,17.83 20.389,17.668 l 0.016,-0.043 c -0.528,-0.139 -1.06,-0.26 -1.59,-0.387 C 13.002,15.692 8.56,14.998 8.56,14.998 l -0.732,5.508 c 0,0 0,0 0,0 0,0 0,0 0,0.001 10e-4,0.006 0.386,2.643 2.957,9.061 l -0.011,0.031 c 0.26,0.671 0.525,1.325 0.791,1.964 l 0.019,-0.05 c 0.359,0.854 0.752,1.764 1.182,2.731 l -0.013,0.034 c 0.227,0.494 0.454,0.981 0.684,1.462 0,0.002 0.001,0.003 0.002,0.005 0.407,0.894 0.822,1.724 1.241,2.525 0.116,0.229 0.231,0.455 0.347,0.682 0.173,0.339 0.352,0.674 0.536,1.002 l 0.017,-0.036 c 0.405,0.702 0.817,1.358 1.234,1.986 l -0.025,0.054 c 0.433,0.648 0.887,1.271 1.36,1.869 l 0.016,-0.034 c 2.929,3.808 6.102,6.099 9.521,7.751 0.135,0.068 0.265,0.146 0.402,0.213 l 0.01,-0.017 c 0.686,0.32 1.382,0.619 2.089,0.899 l -0.019,0.033 c 0.568,0.227 1.143,0.437 1.726,0.631 0.222,0.074 0.442,0.145 0.661,0.214 0,0 10e-4,10e-4 10e-4,10e-4 1.458,0.505 3.111,0.897 4.76,1.203 0.055,0.01 0.113,0.024 0.168,0.035 l 0.002,-0.005 c 0.793,0.144 1.579,0.269 2.344,0.375"
           style="display:inline;fill:#4bb5a8;fill-opacity:1;fill-rule:nonzero;stroke:none"
           id="path610" /></g><g
         id="g612"
         transform="translate(876.4551,52.2415)"><path
           d="M 0,0 0.375,-0.889 0.7,-0.435 0.154,0.319 C 0.12,0.206 0.068,0.098 0,0"
           style="fill:#b6d0d7;fill-opacity:1;fill-rule:nonzero;stroke:none"
           id="path614" /></g><g
         id="g616"
         transform="translate(876.4551,52.2415)"><path
           d="M 0,0 C 0.068,0.098 0.12,0.206 0.154,0.319 L 0.7,-0.435 -3.604,6.409 v 0 C -3.227,5.779 -2.847,5.141 -2.465,4.49 -2.857,4.148 -2.991,3.575 -2.757,3.083 -2.495,2.532 -1.865,2.275 -1.301,2.467 -1.192,2.274 -1.083,2.081 -0.974,1.886 -1.142,1.887 -1.312,1.851 -1.474,1.775 -2.045,1.503 -2.288,0.82 -2.016,0.249 -2.009,0.234 -2.002,0.22 -1.995,0.206 c 0.007,-0.015 0.013,-0.03 0.02,-0.045 0.182,-0.383 0.549,-0.618 0.944,-0.65 l 0.66,-1.441 0.746,1.041 z"
           style="fill:#a158a2;fill-opacity:1;fill-rule:nonzero;stroke:none"
           id="path618" /></g><g
         id="g620"
         transform="translate(875.4083,49.9458)"><path
           d="m 0,0 c -0.007,0.015 -0.015,0.029 -0.022,0.043 -0.007,0.015 -0.013,0.03 -0.02,0.044 -0.198,0.417 -0.696,0.595 -1.114,0.396 -0.416,-0.198 -0.594,-0.696 -0.395,-1.113 0.007,-0.015 0.014,-0.029 0.022,-0.043 0.006,-0.015 0.012,-0.03 0.019,-0.045 0.088,-0.183 0.233,-0.32 0.405,-0.399 l 0.233,-0.677 0.935,1.305 C 0.089,-0.328 0.076,-0.159 0,0"
           style="fill:#c9507e;fill-opacity:1;fill-rule:nonzero;stroke:none"
           id="path622" /></g><g
         id="g624"
         transform="translate(881.9196,98.8998)"><path
           d="m 0,0 c -0.467,-0.222 -0.665,-0.767 -0.474,-1.24 l 1.59,1.029 C 0.835,0.085 0.388,0.185 0,0"
           style="fill:#a158a2;fill-opacity:1;fill-rule:nonzero;stroke:none"
           id="path626" /></g><g
         id="g628"
         transform="translate(884.9802,101.0692)"><path
           d="m 0,0 c -0.264,0.391 -0.782,0.541 -1.221,0.332 -0.484,-0.23 -0.69,-0.809 -0.46,-1.293 0.204,-0.43 0.683,-0.638 1.127,-0.519 l 2.1,1.359 -0.032,-0.02 z"
           style="fill:#f3a95f;fill-opacity:1;fill-rule:nonzero;stroke:none"
           id="path630" /></g><g
         id="g632"
         transform="translate(884.6985,107.0154)"><path
           d="M 0,0 C 0.142,-0.3 0.385,-0.519 0.67,-0.638 0.758,-1.088 0.85,-1.543 0.945,-2.005 0.765,-2.007 0.582,-2.048 0.409,-2.13 -0.236,-2.437 -0.51,-3.208 -0.204,-3.853 c 0.3,-0.63 1.042,-0.907 1.678,-0.634 0.114,-0.519 0.232,-1.046 0.353,-1.58 L 0.266,1.482 C -0.12,1.107 -0.244,0.513 0,0"
           style="fill:#c9507e;fill-opacity:1;fill-rule:nonzero;stroke:none"
           id="path634" /></g><g
         id="g636"
         transform="translate(889.3211,106.3793)"><path
           d="M 0,0 C -0.336,0.707 -1.179,1.011 -1.888,0.684 L -1.934,0.65 c 0.172,-0.904 0.334,-1.68 0.477,-2.315 l 0.146,-0.377 c 0.009,0 0.018,0 0.028,0 L -0.54,-3.976 C -0.547,-3.98 -0.553,-3.984 -0.559,-3.988 l 0.061,-0.161 c 0.26,0.164 0.712,0.453 1.317,0.861 L 0.752,-3.133 C 0.75,-3.135 0.747,-3.136 0.745,-3.138 l -0.781,1.841 C 0.175,-0.91 0.204,-0.429 0,0"
           style="fill:#a158a2;fill-opacity:1;fill-rule:nonzero;stroke:none"
           id="path638" /></g><g
         id="g640"
         transform="translate(887.0222,109.0589)"><path
           d="m 0,0 0.085,-0.001 c 0.025,0.01 0.049,0.019 0.073,0.03 0.645,0.307 0.92,1.078 0.613,1.723 -0.22,0.464 -0.68,0.735 -1.16,0.739 C -0.41,2.62 -0.43,2.749 -0.451,2.877 -0.297,1.818 -0.146,0.866 0,0"
           style="fill:#f3a95f;fill-opacity:1;fill-rule:nonzero;stroke:none"
           id="path642" /></g><g
         id="g644"
         transform="translate(892.45,106.3708)"><path
           d="M 0,0 V 0 L -0.978,1.566 C -0.86,1.874 -0.864,2.228 -1.016,2.549 -1.313,3.172 -2.058,3.437 -2.681,3.14 -3.304,2.845 -3.569,2.099 -3.273,1.476 -3.081,1.073 -2.702,0.82 -2.289,0.772 l 0.91,-1.484 0.833,-1.341 c 0.387,0.278 0.799,0.579 1.234,0.904 z"
           style="fill:#f3a95f;fill-opacity:1;fill-rule:nonzero;stroke:none"
           id="path646" /></g><g
         id="g648"
         transform="translate(891.8961,104.3124)"><path
           d="M 0,0 -1.742,-1.212 C -1.251,-0.881 -0.666,-0.478 0,0"
           style="fill:#b87433;fill-opacity:1;fill-rule:nonzero;stroke:none"
           id="path650" /></g><g
         id="g652"
         transform="translate(893.527,111.5951)"><path
           d="m 0,0 c -0.32,0.673 -1.125,0.959 -1.798,0.639 -0.673,-0.32 -0.959,-1.125 -0.639,-1.798 0.273,-0.574 0.899,-0.866 1.495,-0.741 L 1.487,-4.898 1.5,-4.915 c 0.345,0.275 0.696,0.556 1.055,0.853 L 0.107,-0.833 C 0.159,-0.56 0.128,-0.269 0,0"
           style="fill:#c9507e;fill-opacity:1;fill-rule:nonzero;stroke:none"
           id="path654" /></g><g
         id="g656"
         transform="translate(889.9014,122.8776)"><path
           d="M 0,0 -3.963,3.095 C -4.051,2.427 -4.118,1.801 -4.169,1.194 v 0 l 3.234,-2.515 c 0.01,-0.161 0.05,-0.323 0.123,-0.477 0.307,-0.645 1.078,-0.92 1.723,-0.613 0.645,0.306 0.92,1.078 0.613,1.723 C 1.248,-0.108 0.597,0.172 0,0"
           style="fill:#788cbd;fill-opacity:1;fill-rule:nonzero;stroke:none"
           id="path658" /></g><g
         id="g660"
         transform="translate(888.7507,120.1418)"><path
           d="m 0,0 -1.762,1.72 v 0.001 l -1.306,1.276 c 0,0.004 0,0.008 0,0.012 L -3.083,3.024 C -3.126,2.265 -3.141,1.525 -3.128,0.773 l 0.046,-0.032 2.158,-2.098 c 0.013,-0.149 0.052,-0.297 0.12,-0.439 0.307,-0.645 1.078,-0.919 1.723,-0.613 0.645,0.307 0.92,1.078 0.613,1.723 C 1.255,-0.103 0.6,0.177 0,0"
           style="fill:#f3a95f;fill-opacity:1;fill-rule:nonzero;stroke:none"
           id="path662" /></g><g
         id="g664"
         transform="translate(890.9582,125.6218)"><path
           d="M 0,0 -4.374,3.155 -4.388,3.161 C -4.56,2.636 -4.708,2.08 -4.828,1.49 l 1.272,-0.927 2.687,-1.93 c 0.006,-0.192 0.051,-0.386 0.139,-0.57 0.341,-0.717 1.198,-1.022 1.915,-0.681 0.717,0.341 1.022,1.198 0.681,1.915 C 1.533,-0.003 0.707,0.304 0,0"
           style="fill:#a158a2;fill-opacity:1;fill-rule:nonzero;stroke:none"
           id="path666" /></g><g
         id="g668"
         transform="translate(892.8039,128.17)"><path
           d="m 0,0 -5.148,3.042 c 0,0 0,0 0,0 L -5.153,3.046 C -5.417,2.591 -5.661,2.105 -5.878,1.582 l 0.012,-0.007 4.962,-2.918 c 0.013,-0.151 0.053,-0.302 0.121,-0.447 0.307,-0.645 1.078,-0.919 1.723,-0.612 0.645,0.306 0.919,1.078 0.613,1.723 C 1.273,-0.09 0.605,0.189 0,0"
           style="fill:#f3a95f;fill-opacity:1;fill-rule:nonzero;stroke:none"
           id="path670" /></g><g
         id="g672"
         transform="translate(896.2646,133.0413)"><path
           d="m 0,0 c -0.053,-0.025 -0.105,-0.054 -0.154,-0.085 l -4.274,2.434 0.005,0.038 C -4.934,2.086 -5.443,1.732 -5.94,1.324 l 0.036,-0.008 5.14,-2.913 c 0.022,-0.094 0.055,-0.187 0.098,-0.277 0.333,-0.702 1.173,-1 1.874,-0.667 0.702,0.333 1,1.173 0.667,1.875 C 1.541,0.035 0.702,0.334 0,0"
           style="fill:#a158a2;fill-opacity:1;fill-rule:nonzero;stroke:none"
           id="path674" /></g><g
         id="g676"
         transform="translate(894.1568,130.6998)"><path
           d="M 0,0 C -0.018,-0.009 -0.036,-0.017 -0.053,-0.027 L -3.255,1.865 -4.811,2.761 C -5.177,2.382 -5.528,1.966 -5.857,1.51 l 0.004,-0.001 5.044,-2.967 c 0.018,-0.153 0.06,-0.305 0.13,-0.452 0.34,-0.715 1.195,-1.019 1.91,-0.679 0.714,0.34 1.019,1.195 0.679,1.91 C 1.57,0.036 0.715,0.34 0,0"
           style="fill:#788cbd;fill-opacity:1;fill-rule:nonzero;stroke:none"
           id="path678" /></g><g
         id="g680"
         transform="translate(915.5402,140.7379)"><path
           d="m 0,0 -1.777,0.217 c 0.629,0.102 1.269,0.206 1.921,0.312 0,0 -2.48,-0.37 -5.439,-0.86 l -0.003,-0.024 c -0.015,-0.235 0.027,-0.477 0.135,-0.705 0.337,-0.709 1.184,-1.01 1.893,-0.673 0.234,0.111 0.423,0.277 0.56,0.475 l 2.26,-0.342 0.032,-10e-4 c 0.381,1.348 0.562,2.13 0.562,2.13 C 0.096,0.352 0.048,0.176 0,0"
           style="fill:#a158a2;fill-opacity:1;fill-rule:nonzero;stroke:none"
           id="path682" /></g><g
         id="g684"
         transform="translate(914.3766,136.7548)"><path
           d="M 0,0 -3.177,0.847 C -3.193,0.894 -3.212,0.94 -3.234,0.986 -3.56,1.672 -4.381,1.964 -5.067,1.638 -5.754,1.312 -6.046,0.491 -5.719,-0.195 c 0.326,-0.687 1.147,-0.979 1.833,-0.653 0.161,0.077 0.3,0.18 0.414,0.302 l 2.676,-0.71 0.399,-0.079 c 0.155,0.471 0.3,0.919 0.433,1.343 z"
           style="fill:#c9507e;fill-opacity:1;fill-rule:nonzero;stroke:none"
           id="path686" /></g><g
         id="g688"
         transform="translate(913.1774,133.0943)"><path
           d="M 0,0 H -0.014 L -3.966,1.349 C -3.987,1.426 -4.014,1.502 -4.05,1.576 -4.359,2.227 -5.137,2.503 -5.787,2.194 -6.438,1.885 -6.714,1.107 -6.405,0.457 c 0.309,-0.651 1.087,-0.927 1.738,-0.618 0.04,0.019 0.08,0.041 0.118,0.063 l 3.957,-1.495 C -0.865,-2.324 -1.142,-3.03 -1.421,-3.721 -0.889,-2.408 -0.417,-1.161 0,0"
           style="fill:#f3a95f;fill-opacity:1;fill-rule:nonzero;stroke:none"
           id="path690" /></g><g
         id="g692"
         transform="translate(907.3386,139.3793)"><path
           d="M 0,0 C 0.283,0.135 0.495,0.359 0.617,0.623 V 0.639 C -0.396,0.463 -1.408,0.28 -2.345,0.1 -2.058,0.153 -1.769,0.206 -1.475,0.258 -1.099,-0.122 -0.51,-0.243 0,0"
           style="fill:#f3a95f;fill-opacity:1;fill-rule:nonzero;stroke:none"
           id="path694" /></g><g
         id="g696"
         transform="translate(904.726,126.8334)"><path
           d="M 0,0 C 0.019,0.009 0.038,0.019 0.057,0.029 L 4.358,-2.264 4.82,-2.472 c 0.21,0.441 0.421,0.878 0.632,1.342 L 5.428,-1.142 0.761,1.365 C 0.745,1.51 0.704,1.655 0.638,1.795 0.319,2.467 -0.485,2.752 -1.157,2.433 -1.829,2.113 -2.115,1.31 -1.795,0.638 -1.476,-0.034 -0.672,-0.32 0,0"
           style="fill:#c9507e;fill-opacity:1;fill-rule:nonzero;stroke:none"
           id="path698" /></g><g
         id="g700"
         transform="translate(902.7266,123.9698)"><path
           d="m 0,0 4.928,-3.061 0.094,-0.055 c 0.243,0.432 0.479,0.895 0.717,1.348 L 5.675,-1.737 0.78,1.12 C 0.799,1.35 0.759,1.589 0.653,1.814 0.331,2.492 -0.479,2.78 -1.157,2.458 -1.834,2.135 -2.122,1.325 -1.8,0.648 -1.48,-0.027 -0.675,-0.315 0,0"
           style="fill:#f3a95f;fill-opacity:1;fill-rule:nonzero;stroke:none"
           id="path702" /></g><g
         id="g704"
         transform="translate(901.7277,112.7651)"><path
           d="M 0,0 -3.978,3.534 C -3.944,3.787 -3.98,4.052 -4.097,4.299 -4.418,4.974 -5.226,5.261 -5.901,4.94 -6.577,4.619 -6.864,3.811 -6.543,3.136 -6.268,2.559 -5.638,2.265 -5.039,2.393 l 4.031,-3.463 c 0.361,0.354 0.692,0.71 1.031,1.065 z"
           style="fill:#f3a95f;fill-opacity:1;fill-rule:nonzero;stroke:none"
           id="path706" /></g><g
         id="g708"
         transform="translate(898.8986,118.0231)"><path
           d="M 0,0 C 0.006,0.003 0.012,0.006 0.018,0.009 L 4.451,-3.374 4.514,-3.42 c 0.294,0.348 0.583,0.701 0.863,1.056 L 5.292,-2.308 0.747,1.157 C 0.751,1.354 0.711,1.555 0.62,1.745 0.31,2.398 -0.472,2.676 -1.125,2.365 -1.778,2.055 -2.056,1.273 -1.745,0.62 -1.435,-0.033 -0.653,-0.311 0,0"
           style="fill:#c9507e;fill-opacity:1;fill-rule:nonzero;stroke:none"
           id="path710" /></g><g
         id="g712"
         transform="translate(900.7548,121.0301)"><path
           d="m 0,0 0.013,0.006 4.852,-3.347 0.103,-0.063 c 0.294,0.427 0.59,0.854 0.873,1.3 L 5.706,-2.074 0.695,1.183 C 0.685,1.333 0.647,1.484 0.579,1.628 0.289,2.237 -0.44,2.496 -1.049,2.206 -1.658,1.917 -1.918,1.188 -1.628,0.579 -1.338,-0.03 -0.609,-0.289 0,0"
           style="fill:#a158a2;fill-opacity:1;fill-rule:nonzero;stroke:none"
           id="path714" /></g><g
         id="g716"
         transform="translate(887.3415,114.2343)"><path
           d="m 0,0 -1.335,2.064 -0.031,0.015 c 0.152,-1.274 0.352,-2.702 0.596,-4.378 0.375,-0.302 0.904,-0.382 1.368,-0.161 0.645,0.306 0.919,1.078 0.613,1.723 C 0.983,-0.258 0.499,0.016 0,0"
           style="fill:#788cbd;fill-opacity:1;fill-rule:nonzero;stroke:none"
           id="path718" /></g><g
         id="g720"
         transform="translate(887.9569,117.3098)"><path
           d="m 0,0 -2.243,2.364 c 0,0.003 0,0.007 0,0.011 L -2.294,2.429 C -2.25,1.6 -2.174,0.73 -2.07,-0.221 l 0.021,-0.029 -0.006,0.06 0.864,-0.906 C -1.25,-1.382 -1.22,-1.688 -1.085,-1.972 -0.756,-2.663 0.071,-2.957 0.762,-2.628 1.453,-2.3 1.748,-1.472 1.419,-0.781 1.156,-0.229 0.576,0.07 0,0"
           style="fill:#a158a2;fill-opacity:1;fill-rule:nonzero;stroke:none"
           id="path722" /></g><g
         id="g724"
         transform="translate(923.0714,145.2401)"><path
           d="m 0,0 0.088,-0.349 c 0.533,0.106 1.129,0.228 1.78,0.368 L 1.799,0.247 1.07,3.213 C 1.769,3.758 2.022,4.733 1.626,5.566 1.167,6.531 0.014,6.941 -0.95,6.482 -1.914,6.024 -2.324,4.871 -1.866,3.907 -1.619,3.387 -1.17,3.028 -0.658,2.88 Z"
           style="fill:#c9507e;fill-opacity:1;fill-rule:nonzero;stroke:none"
           id="path726" /></g><g
         id="g728"
         transform="translate(920.5413,144.8639)"><path
           d="m 0,0 -0.247,1.585 c 0.725,0.539 0.993,1.532 0.59,2.38 -0.262,0.55 -0.75,0.919 -1.3,1.05 l 0.732,-5.508 c 0,0 0.117,0.018 0.317,0.052 z"
           style="fill:#f3a95f;fill-opacity:1;fill-rule:nonzero;stroke:none"
           id="path730" /></g><g
         id="g732"
         transform="translate(925.9345,153.7005)"><path
           d="m 0,0 c -0.964,-0.458 -1.374,-1.611 -0.916,-2.576 0.273,-0.574 0.794,-0.952 1.374,-1.066 l 1.37,-4.07 0.037,-0.078 c 0.878,0.211 1.803,0.443 2.772,0.701 C 4.299,-7.17 3.963,-7.26 3.625,-7.336 l -1.482,4.171 c 0.605,0.559 0.805,1.466 0.433,2.249 C 2.118,0.049 0.964,0.459 0,0"
           style="fill:#a158a2;fill-opacity:1;fill-rule:nonzero;stroke:none"
           id="path734" /></g><g
         id="g736"
         transform="translate(920.7872,154.2057)"><path
           d="m 0,0 c -1.008,-3.008 -1.202,-4.321 -1.203,-4.326 0.107,0.404 0.215,0.802 0.325,1.194 0.26,-0.021 0.53,0.024 0.783,0.144 0.767,0.365 1.093,1.281 0.728,2.047 -0.12,0.252 -0.299,0.457 -0.514,0.605 l -0.074,0.294 z"
           style="fill:#a158a2;fill-opacity:1;fill-rule:nonzero;stroke:none"
           id="path738" /></g><g
         id="g740"
         transform="translate(922.5416,158.9412)"><path
           d="M 0,0 C -0.581,-1.449 -1.045,-2.696 -1.423,-3.772 L -1.4,-3.828 c 0.379,-0.732 1.273,-1.038 2.023,-0.681 0.767,0.365 1.093,1.281 0.728,2.047 -0.16,0.339 -0.429,0.591 -0.745,0.736 z"
           style="fill:#a158a2;fill-opacity:1;fill-rule:nonzero;stroke:none"
           id="path742" /></g><g
         id="g744"
         transform="translate(932.3624,167.9548)"><path
           d="M 0,0 C -0.223,-0.458 -0.244,-1.01 -0.008,-1.507 0.404,-2.373 1.44,-2.741 2.305,-2.329 3.171,-1.918 3.54,-0.882 3.128,-0.016 2.835,0.6 2.225,0.965 1.586,0.974 l -2.72,5.809 C -1.575,6.287 -2.011,5.77 -2.441,5.212 Z"
           style="fill:#f3a95f;fill-opacity:1;fill-rule:nonzero;stroke:none"
           id="path746" /></g><g
         id="g748"
         transform="translate(931.228,174.7381)"><path
           d="M 0,0 C 0.057,0.064 0.115,0.123 0.173,0.187 0.115,0.125 0.053,0.07 -0.004,0.008 Z"
           style="fill:#b87433;fill-opacity:1;fill-rule:nonzero;stroke:none"
           id="path750" /></g><g
         id="g752"
         transform="translate(934.4227,177.7867)"><path
           d="m 0,0 c -1.034,-0.825 -2.04,-1.775 -3.022,-2.862 0.417,0.447 0.841,0.884 1.281,1.298 l 2.933,-5.87 c -0.216,-0.473 -0.23,-1.035 0.011,-1.541 0.432,-0.909 1.519,-1.295 2.428,-0.863 0.908,0.432 1.295,1.518 0.863,2.427 -0.257,0.54 -0.744,0.895 -1.288,1.004 L 0.025,-0.04 Z"
           style="fill:#788cbd;fill-opacity:1;fill-rule:nonzero;stroke:none"
           id="path754" /></g><g
         id="g756"
         transform="translate(939.4424,180.9168)"><path
           d="m 0,0 c -1.166,-0.563 -2.302,-1.21 -3.411,-1.957 l 0.017,-0.031 3.338,-6.256 c -0.205,-0.465 -0.214,-1.012 0.021,-1.507 0.429,-0.902 1.508,-1.286 2.41,-0.857 0.903,0.429 1.287,1.508 0.858,2.41 -0.256,0.537 -0.742,0.891 -1.284,0.998 l -3.424,6.419 C -0.993,-0.504 -0.497,-0.251 0,0"
           style="fill:#a158a2;fill-opacity:1;fill-rule:nonzero;stroke:none"
           id="path758" /></g><g
         id="g760"
         transform="translate(946.5391,183.545)"><path
           d="M 0,0 C -0.772,-0.194 -1.523,-0.41 -2.227,-0.654 L 0.987,-6.643 C 0.796,-7.128 0.799,-7.688 1.04,-8.196 1.503,-9.17 2.667,-9.584 3.641,-9.121 c 0.974,0.463 1.387,1.627 0.925,2.601 -0.321,0.675 -0.979,1.081 -1.677,1.112 l -2.89,5.388 z"
           style="fill:#788cbd;fill-opacity:1;fill-rule:nonzero;stroke:none"
           id="path762" /></g><g
         id="g764"
         transform="translate(961.1833,163.2889)"><path
           d="m 0,0 0.115,-0.165 c 0.533,0.481 1.03,0.941 1.497,1.381 L 1.528,1.378 -1.02,5.335 C -0.631,5.887 -0.543,6.627 -0.853,7.28 -1.312,8.244 -2.465,8.654 -3.429,8.196 -4.393,7.737 -4.803,6.584 -4.345,5.62 -4.043,4.986 -3.441,4.591 -2.79,4.526 Z"
           style="fill:#c9507e;fill-opacity:1;fill-rule:nonzero;stroke:none"
           id="path766" /></g><g
         id="g768"
         transform="translate(958.8754,161.0195)"><path
           d="m 0,0 -0.042,0.057 -3.006,5.067 c 0.355,0.545 0.427,1.256 0.127,1.887 -0.458,0.964 -1.611,1.374 -2.576,0.915 -0.964,-0.458 -1.374,-1.611 -0.916,-2.575 0.35,-0.737 1.106,-1.15 1.873,-1.099 l 3.103,-5.435 C -0.94,-0.784 -0.465,-0.39 0,0"
           style="fill:#f3a95f;fill-opacity:1;fill-rule:nonzero;stroke:none"
           id="path770" /></g><g
         id="g772"
         transform="translate(962.0078,174.2806)"><path
           d="m 0,0 c -0.964,-0.459 -1.374,-1.612 -0.916,-2.576 0.294,-0.617 0.873,-1.007 1.504,-1.088 l 2.538,-3.726 0.06,-0.041 c 1.119,1.14 1.742,1.844 1.743,1.845 -0.092,-0.105 -0.198,-0.22 -0.316,-0.345 l -2.104,3.228 c 0.302,0.53 0.349,1.194 0.067,1.787 C 2.118,0.049 0.964,0.458 0,0"
           style="fill:#a158a2;fill-opacity:1;fill-rule:nonzero;stroke:none"
           id="path774" /></g></g></g></svg>
