<?xml version="1.0" encoding="UTF-8" standalone="no"?>
<!-- Generator: Adobe Illustrator 23.0.1, SVG Export Plug-In . SVG Version: 6.00 Build 0)  -->

<svg
   version="1.1"
   id="Layer_1"
   x="0px"
   y="0px"
   viewBox="0 0 91.052034 93.158384"
   xml:space="preserve"
   sodipodi:docname="0_human_dna_legend.svg"
   inkscape:version="1.1 (ce6663b3b7, 2021-05-25)"
   width="91.052032"
   height="93.158386"
   xmlns:inkscape="http://www.inkscape.org/namespaces/inkscape"
   xmlns:sodipodi="http://sodipodi.sourceforge.net/DTD/sodipodi-0.dtd"
   xmlns="http://www.w3.org/2000/svg"
   xmlns:svg="http://www.w3.org/2000/svg"><defs
   id="defs186" /><sodipodi:namedview
   id="namedview184"
   pagecolor="#ffffff"
   bordercolor="#666666"
   borderopacity="1.0"
   inkscape:pageshadow="2"
   inkscape:pageopacity="0.0"
   inkscape:pagecheckerboard="0"
   showgrid="false"
   inkscape:zoom="1.5766182"
   inkscape:cx="-69.452452"
   inkscape:cy="34.884793"
   inkscape:window-width="1920"
   inkscape:window-height="1025"
   inkscape:window-x="0"
   inkscape:window-y="28"
   inkscape:window-maximized="1"
   inkscape:current-layer="Layer_1" />
<style
   type="text/css"
   id="style2">
	.st0{enable-background:new    ;}
	.st1{fill:#FFFFFF;}
	.st2{fill:none;stroke:#F2B771;stroke-width:3;stroke-miterlimit:10;}
	.st3{fill:none;stroke:#A158A3;stroke-width:3;stroke-miterlimit:10;}
	.st4{fill:none;stroke:#C9507E;stroke-width:3;stroke-miterlimit:10;}
	.st5{fill:none;stroke:#798CBD;stroke-width:3;stroke-miterlimit:10;}
	.st6{fill:none;stroke:#79BC7C;stroke-width:3;stroke-linecap:round;stroke-linejoin:round;stroke-miterlimit:10;}
	.st7{fill:none;}
	.st8{fill:#F2B771;}
	.st9{fill:#A158A3;}
	.st10{fill:#C9507E;}
	.st11{fill:#798CBD;}
</style>
<g
   id="g6"
   transform="matrix(1.0260616,0,0,1.0295514,-246.77433,-283.00764)">
	
		
</g>


<g
   id="AR_x5F_layer"
   transform="matrix(0.58143063,0,0,0.56942778,-123.26329,-135.40993)">
	<g
   class="st0"
   id="g28">
		<path
   class="st1"
   d="m 237.7,287.3 h -2.1 l -0.5,1.3 h -0.7 l 1.9,-5 h 0.6 l 1.9,5 h -0.7 z m -1.8,-0.6 h 1.7 l -0.8,-2.3 z"
   id="path16" />
		<path
   class="st1"
   d="m 239.3,286.7 c 0,-0.6 0.1,-1 0.4,-1.4 0.3,-0.3 0.6,-0.5 1.1,-0.5 0.4,0 0.8,0.1 1,0.4 v -1.9 h 0.6 v 5.3 h -0.6 v -0.4 c -0.3,0.3 -0.6,0.5 -1.1,0.5 -0.4,0 -0.8,-0.2 -1.1,-0.5 -0.2,-0.5 -0.3,-0.9 -0.3,-1.5 0,0 0,0 0,0 z m 0.6,0.1 c 0,0.4 0.1,0.8 0.3,1 0.2,0.2 0.4,0.4 0.7,0.4 0.4,0 0.7,-0.2 0.9,-0.5 V 286 c -0.2,-0.4 -0.5,-0.5 -0.9,-0.5 -0.3,0 -0.6,0.1 -0.7,0.4 -0.1,0.3 -0.3,0.4 -0.3,0.9 z"
   id="path18" />
		<path
   class="st1"
   d="m 244.9,288.6 c -0.5,0 -0.9,-0.2 -1.2,-0.5 -0.3,-0.3 -0.5,-0.8 -0.5,-1.3 v -0.1 c 0,-0.4 0.1,-0.7 0.2,-1 0.1,-0.3 0.3,-0.5 0.6,-0.7 0.3,-0.2 0.5,-0.2 0.8,-0.2 0.5,0 0.8,0.2 1.1,0.5 0.3,0.3 0.4,0.8 0.4,1.4 v 0.3 h -2.5 c 0,0.4 0.1,0.7 0.3,0.9 0.2,0.2 0.5,0.3 0.8,0.3 0.2,0 0.4,0 0.6,-0.1 0.2,-0.1 0.3,-0.2 0.4,-0.4 l 0.4,0.3 c -0.3,0.4 -0.7,0.6 -1.4,0.6 z m 0,-3.3 c -0.3,0 -0.5,0.1 -0.6,0.3 -0.2,0.2 -0.3,0.5 -0.3,0.8 h 1.9 v 0 c 0,-0.3 -0.1,-0.6 -0.3,-0.8 -0.3,-0.2 -0.5,-0.3 -0.7,-0.3 z"
   id="path20" />
		<path
   class="st1"
   d="m 247.1,283.9 c 0,-0.1 0,-0.2 0.1,-0.3 0.1,-0.1 0.2,-0.1 0.3,-0.1 0.1,0 0.2,0 0.3,0.1 0.1,0.1 0.1,0.2 0.1,0.3 0,0.1 0,0.2 -0.1,0.3 -0.1,0.1 -0.2,0.1 -0.3,0.1 -0.1,0 -0.2,0 -0.3,-0.1 -0.1,-0.1 -0.1,-0.2 -0.1,-0.3 z m 0.7,4.7 h -0.6 v -3.7 h 0.6 z"
   id="path22" />
		<path
   class="st1"
   d="m 249.4,284.9 v 0.5 c 0.3,-0.4 0.6,-0.5 1.1,-0.5 0.8,0 1.2,0.4 1.2,1.3 v 2.4 h -0.6 v -2.5 c 0,-0.3 -0.1,-0.5 -0.2,-0.6 -0.1,-0.1 -0.3,-0.2 -0.6,-0.2 -0.2,0 -0.4,0 -0.5,0.2 -0.1,0.2 -0.3,0.3 -0.4,0.4 v 2.6 h -0.6 v -3.7 z"
   id="path24" />
		<path
   class="st1"
   d="m 254.2,288.6 c -0.5,0 -0.9,-0.2 -1.2,-0.5 -0.3,-0.3 -0.5,-0.8 -0.5,-1.3 v -0.1 c 0,-0.4 0.1,-0.7 0.2,-1 0.1,-0.3 0.3,-0.5 0.6,-0.7 0.3,-0.2 0.5,-0.2 0.8,-0.2 0.5,0 0.9,0.2 1.1,0.5 0.3,0.3 0.4,0.8 0.4,1.4 v 0.3 h -2.5 c 0,0.4 0.1,0.7 0.3,0.9 0.2,0.2 0.5,0.3 0.8,0.3 0.2,0 0.4,0 0.6,-0.1 0.2,-0.1 0.3,-0.2 0.4,-0.4 l 0.4,0.3 c -0.3,0.4 -0.8,0.6 -1.4,0.6 z m -0.1,-3.3 c -0.3,0 -0.5,0.1 -0.6,0.3 -0.2,0.2 -0.3,0.5 -0.3,0.8 h 1.8 v 0 c 0,-0.3 -0.1,-0.6 -0.3,-0.8 -0.1,-0.2 -0.3,-0.3 -0.6,-0.3 z"
   id="path26" />
	</g>
	<g
   class="st0"
   id="g44">
		<path
   class="st1"
   d="m 238.4,310.9 h -1.6 v 4.4 h -0.6 v -4.4 h -1.6 v -0.5 h 3.9 v 0.5 z"
   id="path30" />
		<path
   class="st1"
   d="m 239.7,312.1 c 0.3,-0.3 0.7,-0.5 1.1,-0.5 0.8,0 1.2,0.4 1.2,1.3 v 2.4 h -0.6 v -2.5 c 0,-0.3 -0.1,-0.5 -0.2,-0.6 -0.1,-0.1 -0.3,-0.2 -0.6,-0.2 -0.2,0 -0.4,0 -0.5,0.2 -0.1,0.2 -0.3,0.3 -0.4,0.4 v 2.6 h -0.6 V 310 h 0.6 z"
   id="path32" />
		<path
   class="st1"
   d="m 244.1,314.4 0.9,-2.8 h 0.7 l -1.5,4.3 c -0.2,0.6 -0.6,0.9 -1.1,0.9 h -0.1 -0.2 v -0.5 h 0.2 c 0.2,0 0.4,0 0.5,-0.1 0.1,-0.1 0.2,-0.3 0.3,-0.5 l 0.1,-0.4 -1.3,-3.7 h 0.7 z"
   id="path34" />
		<path
   class="st1"
   d="m 246.8,311.6 v 0.4 c 0.3,-0.3 0.6,-0.5 1.1,-0.5 0.5,0 0.9,0.2 1.1,0.6 0.1,-0.2 0.3,-0.3 0.5,-0.4 0.2,-0.1 0.4,-0.2 0.7,-0.2 0.8,0 1.2,0.4 1.2,1.3 v 2.5 h -0.6 v -2.4 c 0,-0.3 -0.1,-0.5 -0.2,-0.6 -0.1,-0.1 -0.3,-0.2 -0.6,-0.2 -0.2,0 -0.4,0.1 -0.6,0.2 -0.2,0.1 -0.3,0.3 -0.3,0.6 v 2.5 h -0.6 V 313 c 0,-0.5 -0.3,-0.8 -0.8,-0.8 -0.4,0 -0.7,0.2 -0.8,0.5 v 2.7 h -0.6 v -3.7 h 0.5 z"
   id="path36" />
		<path
   class="st1"
   d="m 252.4,310.6 c 0,-0.1 0,-0.2 0.1,-0.3 0.1,-0.1 0.2,-0.1 0.3,-0.1 0.1,0 0.2,0 0.3,0.1 0.1,0.1 0.1,0.2 0.1,0.3 0,0.1 0,0.2 -0.1,0.3 -0.1,0.1 -0.2,0.1 -0.3,0.1 -0.1,0 -0.2,0 -0.3,-0.1 -0.1,-0.1 -0.1,-0.2 -0.1,-0.3 z m 0.7,4.7 h -0.6 v -3.7 h 0.6 z"
   id="path38" />
		<path
   class="st1"
   d="m 254.7,311.6 v 0.5 c 0.3,-0.4 0.7,-0.5 1.1,-0.5 0.8,0 1.2,0.4 1.2,1.3 v 2.4 h -0.6 v -2.5 c 0,-0.3 -0.1,-0.5 -0.2,-0.6 -0.1,-0.1 -0.3,-0.2 -0.6,-0.2 -0.2,0 -0.4,0 -0.5,0.2 -0.1,0.2 -0.3,0.3 -0.4,0.4 v 2.6 h -0.6 v -3.7 z"
   id="path40" />
		<path
   class="st1"
   d="m 259.5,315.4 c -0.5,0 -0.9,-0.2 -1.2,-0.5 -0.3,-0.3 -0.5,-0.8 -0.5,-1.3 v -0.1 c 0,-0.4 0.1,-0.7 0.2,-1 0.1,-0.3 0.3,-0.5 0.6,-0.7 0.3,-0.2 0.5,-0.2 0.8,-0.2 0.5,0 0.8,0.2 1.1,0.5 0.3,0.3 0.4,0.8 0.4,1.4 v 0.3 h -2.5 c 0,0.4 0.1,0.7 0.3,0.9 0.2,0.2 0.5,0.3 0.8,0.3 0.2,0 0.4,0 0.6,-0.1 0.1,-0.1 0.3,-0.2 0.4,-0.4 l 0.4,0.3 c -0.3,0.3 -0.8,0.6 -1.4,0.6 z m -0.1,-3.3 c -0.3,0 -0.5,0.1 -0.6,0.3 -0.2,0.2 -0.3,0.5 -0.3,0.8 h 1.9 v 0 c 0,-0.3 -0.1,-0.6 -0.3,-0.8 -0.2,-0.3 -0.4,-0.3 -0.7,-0.3 z"
   id="path42" />
	</g>
	<g
   class="st0"
   id="g62">
		<path
   class="st1"
   d="m 238.7,340.5 c -0.1,0.5 -0.3,0.9 -0.6,1.2 -0.3,0.3 -0.8,0.4 -1.3,0.4 -0.6,0 -1.1,-0.2 -1.4,-0.6 -0.3,-0.4 -0.5,-1 -0.5,-1.7 v -0.5 c 0,-0.5 0.1,-0.9 0.3,-1.2 0.2,-0.3 0.4,-0.6 0.7,-0.8 0.3,-0.2 0.7,-0.3 1.1,-0.3 0.5,0 0.9,0.1 1.3,0.4 0.3,0.3 0.5,0.7 0.6,1.2 H 238 c -0.1,-0.4 -0.2,-0.7 -0.4,-0.9 -0.2,-0.2 -0.5,-0.3 -0.8,-0.3 -0.4,0 -0.8,0.2 -1,0.5 -0.2,0.3 -0.4,0.8 -0.4,1.3 v 0.5 c 0,0.5 0.1,1 0.3,1.3 0.2,0.3 0.5,0.5 1,0.5 0.4,0 0.6,-0.1 0.8,-0.3 0.2,-0.2 0.3,-0.5 0.4,-0.9 z"
   id="path46" />
		<path
   class="st1"
   d="m 240.7,341.1 0.9,-2.8 h 0.7 l -1.5,4.3 c -0.2,0.6 -0.6,0.9 -1.1,0.9 h -0.1 -0.2 V 343 h 0.2 c 0.2,0 0.4,0 0.5,-0.1 0.1,-0.1 0.2,-0.3 0.3,-0.5 l 0.1,-0.4 -1.3,-3.7 h 0.7 z"
   id="path48" />
		<path
   class="st1"
   d="m 243.6,337.4 v 0.9 h 0.7 v 0.5 h -0.7 v 2.3 c 0,0.1 0,0.3 0.1,0.3 0.1,0 0.2,0.1 0.3,0.1 0.1,0 0.2,0 0.3,0 v 0.5 c -0.2,0 -0.3,0.1 -0.5,0.1 -0.3,0 -0.5,-0.1 -0.6,-0.3 -0.1,-0.2 -0.2,-0.4 -0.2,-0.7 v -2.3 h -0.7 v -0.5 h 0.7 v -0.9 z"
   id="path50" />
		<path
   class="st1"
   d="m 244.8,340.2 c 0,-0.4 0.1,-0.7 0.2,-1 0.1,-0.3 0.3,-0.5 0.6,-0.7 0.3,-0.2 0.5,-0.2 0.9,-0.2 0.5,0 0.9,0.2 1.2,0.5 0.3,0.4 0.5,0.8 0.5,1.4 v 0 c 0,0.4 -0.1,0.7 -0.2,1 -0.1,0.3 -0.3,0.5 -0.6,0.7 -0.3,0.2 -0.5,0.2 -0.9,0.2 -0.5,0 -0.9,-0.2 -1.2,-0.5 -0.3,-0.4 -0.5,-0.8 -0.5,-1.4 z m 0.7,0 c 0,0.4 0.1,0.7 0.3,1 0.2,0.3 0.4,0.4 0.8,0.4 0.4,0 0.6,-0.1 0.8,-0.4 0.2,-0.3 0.3,-0.6 0.3,-1.1 0,-0.4 -0.1,-0.7 -0.3,-1 -0.2,-0.3 -0.4,-0.4 -0.8,-0.4 -0.3,0 -0.6,0.1 -0.8,0.4 -0.3,0.3 -0.3,0.7 -0.3,1.1 z"
   id="path52" />
		<path
   class="st1"
   d="m 251.1,341.1 c 0,-0.2 -0.1,-0.3 -0.2,-0.4 -0.1,-0.1 -0.4,-0.2 -0.7,-0.2 -0.3,-0.1 -0.6,-0.1 -0.8,-0.3 -0.2,-0.2 -0.3,-0.2 -0.4,-0.3 -0.1,-0.1 -0.1,-0.3 -0.1,-0.5 0,-0.3 0.1,-0.6 0.4,-0.8 0.3,-0.2 0.6,-0.3 1,-0.3 0.4,0 0.8,0.1 1,0.3 0.3,0.2 0.4,0.5 0.4,0.8 h -0.6 c 0,-0.2 -0.1,-0.3 -0.2,-0.5 -0.1,-0.1 -0.3,-0.2 -0.6,-0.2 -0.2,0 -0.4,0 -0.5,0.1 -0.1,0.1 -0.2,0.2 -0.2,0.4 0,0.1 0.1,0.3 0.2,0.3 0.1,0.1 0.3,0.1 0.6,0.2 0.3,0.1 0.6,0.1 0.8,0.3 0.2,0.1 0.3,0.2 0.4,0.4 0.1,0.1 0.1,0.3 0.1,0.5 0,0.3 -0.1,0.6 -0.4,0.8 -0.3,0.2 -0.6,0.3 -1,0.3 -0.3,0 -0.6,0 -0.8,-0.2 -0.2,-0.1 -0.4,-0.3 -0.5,-0.4 -0.1,-0.1 -0.2,-0.4 -0.2,-0.6 h 0.6 c 0,0.2 0.1,0.4 0.3,0.5 0.2,0.1 0.4,0.2 0.6,0.2 0.2,0 0.4,0 0.6,-0.1 0.2,0 0.2,-0.2 0.2,-0.3 z"
   id="path54" />
		<path
   class="st1"
   d="m 252.6,337.4 c 0,-0.1 0,-0.2 0.1,-0.3 0.1,-0.1 0.2,-0.1 0.3,-0.1 0.1,0 0.2,0 0.3,0.1 0.1,0.1 0.1,0.2 0.1,0.3 0,0.1 0,0.2 -0.1,0.3 -0.1,0.1 -0.2,0.1 -0.3,0.1 -0.1,0 -0.2,0 -0.3,-0.1 -0.1,-0.2 -0.1,-0.2 -0.1,-0.3 z m 0.7,4.6 h -0.6 v -3.7 h 0.6 z"
   id="path56" />
		<path
   class="st1"
   d="m 254.9,338.3 v 0.5 c 0.3,-0.4 0.6,-0.5 1.1,-0.5 0.8,0 1.2,0.4 1.2,1.3 v 2.4 h -0.6 v -2.5 c 0,-0.3 -0.1,-0.5 -0.2,-0.6 -0.1,-0.1 -0.3,-0.2 -0.6,-0.2 -0.2,0 -0.4,0 -0.5,0.2 -0.1,0.2 -0.3,0.3 -0.4,0.4 v 2.6 h -0.6 v -3.7 z"
   id="path58" />
		<path
   class="st1"
   d="m 259.7,342.1 c -0.5,0 -0.9,-0.2 -1.2,-0.5 -0.3,-0.3 -0.5,-0.8 -0.5,-1.3 v -0.1 c 0,-0.4 0.1,-0.7 0.2,-1 0.1,-0.3 0.3,-0.5 0.6,-0.7 0.3,-0.2 0.5,-0.2 0.8,-0.2 0.5,0 0.9,0.2 1.1,0.5 0.3,0.3 0.4,0.8 0.4,1.4 v 0.3 h -2.5 c 0,0.4 0.1,0.7 0.3,0.9 0.2,0.2 0.5,0.3 0.8,0.3 0.2,0 0.4,0 0.6,-0.1 0.1,-0.1 0.3,-0.2 0.4,-0.4 l 0.4,0.3 c -0.3,0.4 -0.8,0.6 -1.4,0.6 z m -0.1,-3.3 c -0.3,0 -0.5,0.1 -0.6,0.3 -0.1,0.2 -0.3,0.5 -0.3,0.8 h 1.9 v 0 c 0,-0.3 -0.1,-0.6 -0.3,-0.8 -0.2,-0.2 -0.4,-0.3 -0.7,-0.3 z"
   id="path60" />
	</g>
	<g
   class="st0"
   id="g78">
		<path
   class="st1"
   d="m 238.7,368.1 c -0.2,0.2 -0.4,0.4 -0.7,0.5 -0.3,0.1 -0.7,0.2 -1.1,0.2 -0.4,0 -0.8,-0.1 -1.1,-0.3 -0.3,-0.2 -0.6,-0.5 -0.7,-0.8 -0.2,-0.4 -0.3,-0.8 -0.3,-1.2 v -0.4 c 0,-0.8 0.2,-1.3 0.5,-1.7 0.4,-0.4 0.8,-0.6 1.5,-0.6 0.5,0 0.9,0.1 1.3,0.4 0.3,0.3 0.5,0.6 0.6,1.1 H 238 c -0.1,-0.7 -0.5,-1 -1.2,-1 -0.4,0 -0.8,0.2 -1,0.5 -0.2,0.3 -0.3,0.8 -0.3,1.3 v 0.4 c 0,0.6 0.1,1 0.4,1.3 0.3,0.3 0.6,0.5 1,0.5 0.3,0 0.5,0 0.6,-0.1 0.2,0 0.3,-0.1 0.5,-0.3 v -1.1 h -1.2 v -0.5 h 1.8 v 1.8 z"
   id="path64" />
		<path
   class="st1"
   d="m 241.9,368.4 c -0.3,0.3 -0.6,0.4 -1.1,0.4 -0.4,0 -0.7,-0.1 -0.9,-0.3 -0.2,-0.2 -0.3,-0.6 -0.3,-1 v -2.4 h 0.6 v 2.4 c 0,0.6 0.2,0.8 0.7,0.8 0.5,0 0.8,-0.2 1,-0.5 v -2.7 h 0.6 v 3.7 H 242 Z"
   id="path66" />
		<path
   class="st1"
   d="m 245.8,368.8 c 0,-0.1 -0.1,-0.2 -0.1,-0.4 -0.3,0.3 -0.6,0.5 -1,0.5 -0.4,0 -0.7,-0.1 -0.9,-0.3 -0.2,-0.2 -0.3,-0.5 -0.3,-0.8 0,-0.4 0.1,-0.7 0.4,-0.9 0.3,-0.2 0.7,-0.3 1.2,-0.3 h 0.6 v -0.3 c 0,-0.2 -0.1,-0.4 -0.2,-0.5 -0.1,-0.1 -0.3,-0.2 -0.6,-0.2 -0.2,0 -0.4,0.1 -0.6,0.2 -0.2,0.1 -0.2,0.3 -0.2,0.4 h -0.6 c 0,-0.2 0.1,-0.4 0.2,-0.5 0.1,-0.2 0.3,-0.3 0.5,-0.4 0.2,-0.1 0.5,-0.1 0.7,-0.1 0.4,0 0.8,0.1 1,0.3 0.2,0.2 0.4,0.5 0.4,0.9 v 1.7 c 0,0.3 0,0.6 0.1,0.8 v 0 z m -1,-0.5 c 0.2,0 0.4,0 0.6,-0.1 0.2,-0.1 0.3,-0.2 0.4,-0.4 V 367 h -0.5 c -0.8,0 -1.2,0.2 -1.2,0.7 0,0.2 0.1,0.4 0.2,0.5 0.1,0 0.2,0.1 0.5,0.1 z"
   id="path68" />
		<path
   class="st1"
   d="m 247.9,365.1 v 0.5 c 0.3,-0.4 0.7,-0.5 1.1,-0.5 0.8,0 1.2,0.4 1.2,1.3 v 2.4 h -0.6 v -2.5 c 0,-0.3 -0.1,-0.5 -0.2,-0.6 -0.1,-0.1 -0.3,-0.2 -0.6,-0.2 -0.2,0 -0.4,0 -0.5,0.2 -0.1,0.2 -0.3,0.3 -0.4,0.4 v 2.6 h -0.6 V 365 Z"
   id="path70" />
		<path
   class="st1"
   d="m 251.2,364.1 c 0,-0.1 0,-0.2 0.1,-0.3 0.1,-0.1 0.2,-0.1 0.3,-0.1 0.1,0 0.2,0 0.3,0.1 0.1,0.1 0.1,0.2 0.1,0.3 0,0.1 0,0.2 -0.1,0.3 -0.1,0.1 -0.2,0.1 -0.3,0.1 -0.1,0 -0.2,0 -0.3,-0.1 -0.1,-0.1 -0.1,-0.2 -0.1,-0.3 z m 0.7,4.7 h -0.6 v -3.7 h 0.6 z"
   id="path72" />
		<path
   class="st1"
   d="m 253.5,365.1 v 0.5 c 0.3,-0.4 0.6,-0.5 1.1,-0.5 0.8,0 1.2,0.4 1.2,1.3 v 2.4 h -0.6 v -2.5 c 0,-0.3 -0.1,-0.5 -0.2,-0.6 -0.1,-0.1 -0.3,-0.2 -0.6,-0.2 -0.2,0 -0.4,0 -0.5,0.2 -0.2,0.1 -0.3,0.3 -0.4,0.4 v 2.6 h -0.6 V 365 Z"
   id="path74" />
		<path
   class="st1"
   d="m 258.3,368.8 c -0.5,0 -0.9,-0.2 -1.2,-0.5 -0.3,-0.3 -0.5,-0.8 -0.5,-1.3 v -0.1 c 0,-0.4 0.1,-0.7 0.2,-1 0.1,-0.3 0.3,-0.5 0.6,-0.7 0.3,-0.2 0.5,-0.2 0.8,-0.2 0.5,0 0.8,0.2 1.1,0.5 0.3,0.3 0.4,0.8 0.4,1.4 v 0.3 h -2.5 c 0,0.4 0.1,0.7 0.3,0.9 0.2,0.2 0.5,0.3 0.8,0.3 0.2,0 0.4,0 0.6,-0.1 0.1,-0.1 0.3,-0.2 0.4,-0.4 l 0.4,0.3 c -0.3,0.4 -0.8,0.6 -1.4,0.6 z m -0.1,-3.3 c -0.3,0 -0.5,0.1 -0.6,0.3 -0.1,0.2 -0.3,0.5 -0.3,0.8 h 1.9 v 0 c 0,-0.3 -0.1,-0.6 -0.3,-0.8 -0.2,-0.2 -0.4,-0.3 -0.7,-0.3 z"
   id="path76" />
	</g>
	<line
   class="st2"
   x1="214.7"
   y1="287.10001"
   x2="229.39999"
   y2="287.10001"
   id="line80" />
	<line
   class="st3"
   x1="214.7"
   y1="313.79999"
   x2="229.39999"
   y2="313.79999"
   id="line82" />
	<line
   class="st4"
   x1="214.7"
   y1="340.5"
   x2="229.39999"
   y2="340.5"
   id="line84" />
	<line
   class="st5"
   x1="214.7"
   y1="367.29999"
   x2="229.39999"
   y2="367.29999"
   id="line86" />
	<g
   class="st0"
   id="g122">
		<path
   class="st1"
   d="m 235.7,392.3 v 2 H 235 v -5 h 1.8 c 0.5,0 1,0.1 1.3,0.4 0.3,0.3 0.5,0.6 0.5,1.1 0,0.5 -0.1,0.9 -0.4,1.1 -0.3,0.3 -0.7,0.4 -1.3,0.4 z m 0,-0.6 h 1.2 c 0.4,0 0.6,-0.1 0.8,-0.3 0.2,-0.2 0.3,-0.4 0.3,-0.7 0,-0.3 -0.1,-0.5 -0.3,-0.7 -0.2,-0.2 -0.4,-0.3 -0.8,-0.3 h -1.2 z"
   id="path88" />
		<path
   class="st1"
   d="m 239.9,391 c 0.3,-0.3 0.6,-0.5 1.1,-0.5 0.8,0 1.2,0.4 1.2,1.3 v 2.4 h -0.6 v -2.5 c 0,-0.3 -0.1,-0.5 -0.2,-0.6 -0.1,-0.1 -0.3,-0.2 -0.6,-0.2 -0.2,0 -0.4,0 -0.5,0.2 -0.1,0.1 -0.3,0.3 -0.4,0.4 v 2.6 h -0.6 V 389 h 0.6 z"
   id="path90" />
		<path
   class="st1"
   d="m 243,392.3 c 0,-0.4 0.1,-0.7 0.2,-1 0.1,-0.3 0.3,-0.5 0.6,-0.7 0.3,-0.2 0.5,-0.2 0.9,-0.2 0.5,0 0.9,0.2 1.2,0.5 0.3,0.4 0.5,0.8 0.5,1.4 v 0 c 0,0.4 -0.1,0.7 -0.2,1 -0.1,0.3 -0.3,0.5 -0.6,0.7 -0.3,0.2 -0.5,0.2 -0.9,0.2 -0.5,0 -0.9,-0.2 -1.2,-0.5 -0.4,-0.3 -0.5,-0.7 -0.5,-1.4 z m 0.6,0.1 c 0,0.4 0.1,0.7 0.3,1 0.2,0.3 0.4,0.4 0.8,0.4 0.3,0 0.6,-0.1 0.8,-0.4 0.2,-0.3 0.3,-0.6 0.3,-1.1 0,-0.4 -0.1,-0.7 -0.3,-1 -0.2,-0.3 -0.5,-0.4 -0.8,-0.4 -0.3,0 -0.6,0.1 -0.8,0.4 -0.2,0.3 -0.3,0.7 -0.3,1.1 z"
   id="path92" />
		<path
   class="st1"
   d="m 249.3,393.2 c 0,-0.2 -0.1,-0.3 -0.2,-0.4 -0.1,-0.1 -0.4,-0.2 -0.7,-0.3 -0.3,-0.1 -0.6,-0.1 -0.8,-0.3 -0.2,-0.2 -0.3,-0.2 -0.4,-0.3 -0.1,-0.1 -0.1,-0.3 -0.1,-0.5 0,-0.3 0.1,-0.6 0.4,-0.8 0.3,-0.2 0.6,-0.3 1,-0.3 0.4,0 0.8,0.1 1,0.3 0.3,0.2 0.4,0.5 0.4,0.8 h -0.6 c 0,-0.2 -0.1,-0.3 -0.2,-0.5 -0.1,-0.1 -0.3,-0.2 -0.6,-0.2 -0.2,0 -0.4,0 -0.5,0.1 -0.1,0.1 -0.2,0.2 -0.2,0.4 0,0.1 0.1,0.3 0.2,0.4 0.1,0.1 0.3,0.1 0.6,0.2 0.3,0.1 0.6,0.1 0.8,0.3 0.2,0.1 0.3,0.2 0.4,0.4 0.1,0.1 0.1,0.3 0.1,0.5 0,0.3 -0.1,0.6 -0.4,0.8 -0.3,0.2 -0.6,0.3 -1,0.3 -0.3,0 -0.6,0 -0.8,-0.2 -0.2,-0.1 -0.4,-0.3 -0.5,-0.4 -0.1,-0.1 -0.2,-0.4 -0.2,-0.6 h 0.6 c 0,0.2 0.1,0.4 0.3,0.5 0.2,0.1 0.4,0.2 0.6,0.2 0.2,0 0.4,0 0.6,-0.1 0.1,0 0.2,-0.1 0.2,-0.3 z"
   id="path94" />
		<path
   class="st1"
   d="m 253.9,392.4 c 0,0.6 -0.1,1 -0.4,1.4 -0.3,0.3 -0.6,0.5 -1.1,0.5 -0.4,0 -0.8,-0.1 -1.1,-0.4 v 1.8 h -0.6 v -5.1 h 0.6 v 0.4 c 0.3,-0.3 0.6,-0.5 1.1,-0.5 0.4,0 0.8,0.2 1,0.5 0.4,0.3 0.5,0.8 0.5,1.4 z m -0.6,-0.1 c 0,-0.4 -0.1,-0.8 -0.3,-1 -0.2,-0.2 -0.4,-0.4 -0.7,-0.4 -0.4,0 -0.7,0.2 -0.9,0.5 v 1.8 c 0.2,0.3 0.5,0.5 0.9,0.5 0.3,0 0.5,-0.1 0.7,-0.4 0.2,-0.1 0.3,-0.5 0.3,-1 z"
   id="path96" />
		<path
   class="st1"
   d="m 255.3,391 c 0.3,-0.3 0.7,-0.5 1.1,-0.5 0.8,0 1.2,0.4 1.2,1.3 v 2.4 H 257 v -2.5 c 0,-0.3 -0.1,-0.5 -0.2,-0.6 -0.1,-0.1 -0.3,-0.2 -0.6,-0.2 -0.2,0 -0.4,0 -0.5,0.2 -0.1,0.2 -0.3,0.3 -0.4,0.4 v 2.6 h -0.6 V 389 h 0.6 z"
   id="path98" />
		<path
   class="st1"
   d="m 260.8,394.2 c 0,-0.1 -0.1,-0.2 -0.1,-0.4 -0.3,0.3 -0.6,0.5 -1,0.5 -0.4,0 -0.7,-0.1 -0.9,-0.3 -0.2,-0.2 -0.4,-0.5 -0.4,-0.8 0,-0.4 0.1,-0.7 0.4,-0.9 0.3,-0.2 0.7,-0.3 1.2,-0.3 h 0.6 v -0.3 c 0,-0.2 -0.1,-0.4 -0.2,-0.5 -0.1,-0.1 -0.3,-0.2 -0.6,-0.2 -0.2,0 -0.4,0.1 -0.6,0.2 -0.1,0.1 -0.2,0.3 -0.2,0.4 h -0.6 c 0,-0.2 0.1,-0.4 0.2,-0.5 0.1,-0.2 0.3,-0.3 0.5,-0.4 0.2,-0.1 0.5,-0.1 0.7,-0.1 0.4,0 0.8,0.1 1,0.3 0.2,0.2 0.4,0.5 0.4,0.9 v 1.7 c 0,0.3 0,0.6 0.1,0.8 v 0 l -0.5,-0.1 c 0,0 0,0 0,0 z m -1,-0.5 c 0.2,0 0.4,0 0.6,-0.1 0.2,-0.1 0.3,-0.2 0.4,-0.4 v -0.8 h -0.5 c -0.8,0 -1.2,0.2 -1.2,0.7 0,0.2 0.1,0.4 0.2,0.5 0.1,0.1 0.3,0.1 0.5,0.1 z"
   id="path100" />
		<path
   class="st1"
   d="m 263.2,389.6 v 0.9 h 0.7 v 0.5 h -0.7 v 2.3 c 0,0.1 0,0.3 0.1,0.3 0.1,0 0.2,0.1 0.3,0.1 0.1,0 0.2,0 0.3,0 v 0.5 c -0.2,0 -0.3,0.1 -0.5,0.1 -0.3,0 -0.5,-0.1 -0.6,-0.3 -0.1,-0.2 -0.2,-0.4 -0.2,-0.7 V 391 h -0.7 v -0.5 h 0.7 v -0.9 z"
   id="path102" />
		<path
   class="st1"
   d="m 266.2,394.3 c -0.5,0 -0.9,-0.2 -1.2,-0.5 -0.3,-0.3 -0.5,-0.8 -0.5,-1.3 v -0.1 c 0,-0.4 0.1,-0.7 0.2,-1 0.1,-0.3 0.3,-0.5 0.6,-0.7 0.3,-0.2 0.5,-0.2 0.8,-0.2 0.5,0 0.9,0.2 1.1,0.5 0.3,0.3 0.4,0.8 0.4,1.4 v 0.3 h -2.5 c 0,0.4 0.1,0.7 0.3,0.9 0.2,0.2 0.5,0.3 0.8,0.3 0.2,0 0.4,0 0.6,-0.1 0.1,-0.1 0.3,-0.2 0.4,-0.4 l 0.4,0.3 c -0.3,0.4 -0.8,0.6 -1.4,0.6 z m -0.1,-3.3 c -0.3,0 -0.5,0.1 -0.6,0.3 -0.1,0.2 -0.3,0.5 -0.3,0.8 h 1.9 v 0 c 0,-0.3 -0.1,-0.6 -0.3,-0.8 -0.2,-0.2 -0.4,-0.3 -0.7,-0.3 z"
   id="path104" />
		<path
   class="st1"
   d="m 235,401.2 v -5 h 1.6 c 0.5,0 0.9,0.1 1.2,0.3 0.3,0.2 0.4,0.5 0.4,1 0,0.2 -0.1,0.4 -0.2,0.6 -0.1,0.2 -0.3,0.3 -0.5,0.4 0.3,0.1 0.5,0.2 0.6,0.4 0.1,0.2 0.2,0.5 0.2,0.8 0,0.5 -0.1,0.8 -0.4,1 -0.3,0.2 -0.7,0.4 -1.2,0.4 z m 0.7,-2.8 h 1 c 0.3,0 0.5,-0.1 0.7,-0.2 0.2,-0.1 0.3,-0.3 0.3,-0.6 0,-0.3 -0.1,-0.5 -0.2,-0.6 -0.2,-0.1 -0.4,-0.2 -0.7,-0.2 h -1 v 1.6 z m 0,0.5 v 1.8 h 1.1 c 0.3,0 0.6,-0.1 0.7,-0.2 0.2,-0.2 0.3,-0.4 0.3,-0.6 0,-0.6 -0.3,-0.9 -1,-0.9 z"
   id="path106" />
		<path
   class="st1"
   d="m 241.5,401.2 c 0,-0.1 -0.1,-0.2 -0.1,-0.4 -0.3,0.3 -0.7,0.5 -1.1,0.5 -0.4,0 -0.7,-0.1 -0.9,-0.3 -0.2,-0.2 -0.4,-0.5 -0.4,-0.8 0,-0.4 0.2,-0.7 0.4,-0.9 0.3,-0.2 0.7,-0.3 1.2,-0.3 h 0.6 v -0.3 c 0,-0.2 -0.1,-0.4 -0.2,-0.5 -0.1,-0.1 -0.3,-0.2 -0.6,-0.2 -0.2,0 -0.4,0.1 -0.6,0.2 -0.1,0.1 -0.2,0.3 -0.2,0.4 H 239 c 0,-0.2 0.1,-0.4 0.2,-0.5 0.1,-0.2 0.3,-0.3 0.5,-0.4 0.2,-0.1 0.5,-0.1 0.7,-0.1 0.4,0 0.8,0.1 1,0.3 0.2,0.2 0.4,0.5 0.4,0.9 v 1.7 c 0,0.3 0,0.6 0.1,0.8 v 0 l -0.4,-0.1 c 0,0 0,0 0,0 z m -1,-0.5 c 0.2,0 0.4,0 0.6,-0.1 0.2,-0.1 0.3,-0.2 0.4,-0.4 v -0.8 H 241 c -0.8,0 -1.2,0.2 -1.2,0.7 0,0.2 0.1,0.4 0.2,0.5 0.1,0.1 0.3,0.1 0.5,0.1 z"
   id="path108" />
		<path
   class="st1"
   d="m 244.5,400.8 c 0.2,0 0.4,-0.1 0.6,-0.2 0.2,-0.1 0.3,-0.3 0.3,-0.5 h 0.6 c 0,0.2 -0.1,0.4 -0.2,0.6 -0.1,0.2 -0.3,0.3 -0.5,0.5 -0.2,0.1 -0.5,0.2 -0.7,0.2 -0.5,0 -0.9,-0.2 -1.2,-0.5 -0.3,-0.3 -0.5,-0.8 -0.5,-1.4 v -0.1 c 0,-0.4 0.1,-0.7 0.2,-1 0.1,-0.3 0.3,-0.5 0.6,-0.6 0.3,-0.1 0.5,-0.2 0.9,-0.2 0.4,0 0.8,0.1 1,0.4 0.3,0.3 0.4,0.6 0.4,1 h -0.6 c 0,-0.2 -0.1,-0.4 -0.3,-0.6 -0.2,-0.2 -0.4,-0.2 -0.6,-0.2 -0.3,0 -0.6,0.1 -0.8,0.4 -0.2,0.3 -0.3,0.6 -0.3,1 v 0.1 c 0,0.4 0.1,0.8 0.3,1 0.2,0.2 0.5,0.1 0.8,0.1 z"
   id="path110" />
		<path
   class="st1"
   d="m 247.8,399.5 -0.4,0.4 v 1.3 h -0.6 V 396 h 0.6 v 3.2 l 0.3,-0.4 1.2,-1.2 h 0.8 l -1.4,1.5 1.6,2.1 H 249 Z"
   id="path112" />
		<path
   class="st1"
   d="m 253.4,399.4 c 0,0.6 -0.1,1 -0.4,1.4 -0.3,0.4 -0.6,0.5 -1.1,0.5 -0.5,0 -0.8,-0.2 -1.1,-0.5 v 0.4 h -0.6 V 396 h 0.6 v 2 c 0.3,-0.3 0.6,-0.5 1.1,-0.5 0.5,0 0.8,0.2 1.1,0.5 0.3,0.3 0.4,0.8 0.4,1.4 z m -0.6,-0.1 c 0,-0.4 -0.1,-0.8 -0.3,-1 -0.2,-0.2 -0.4,-0.4 -0.7,-0.4 -0.4,0 -0.7,0.2 -0.9,0.6 v 1.6 c 0.2,0.4 0.5,0.6 0.9,0.6 0.3,0 0.5,-0.1 0.7,-0.4 0.2,-0.1 0.3,-0.5 0.3,-1 z"
   id="path114" />
		<path
   class="st1"
   d="m 254,399.3 c 0,-0.4 0.1,-0.7 0.2,-1 0.1,-0.3 0.3,-0.5 0.6,-0.7 0.3,-0.2 0.5,-0.2 0.9,-0.2 0.5,0 0.9,0.2 1.2,0.5 0.3,0.4 0.5,0.8 0.5,1.4 v 0 c 0,0.4 -0.1,0.7 -0.2,1 -0.1,0.3 -0.3,0.5 -0.6,0.7 -0.3,0.2 -0.5,0.2 -0.9,0.2 -0.5,0 -0.9,-0.2 -1.2,-0.5 -0.3,-0.3 -0.5,-0.7 -0.5,-1.4 z m 0.7,0.1 c 0,0.4 0.1,0.7 0.3,1 0.2,0.3 0.4,0.4 0.8,0.4 0.3,0 0.6,-0.1 0.8,-0.4 0.2,-0.3 0.3,-0.6 0.3,-1.1 0,-0.4 -0.1,-0.7 -0.3,-1 -0.2,-0.3 -0.5,-0.4 -0.8,-0.4 -0.3,0 -0.6,0.1 -0.8,0.4 -0.2,0.3 -0.3,0.7 -0.3,1.1 z"
   id="path116" />
		<path
   class="st1"
   d="m 258.8,397.5 v 0.5 c 0.3,-0.4 0.6,-0.5 1.1,-0.5 0.8,0 1.2,0.4 1.2,1.3 v 2.4 h -0.6 v -2.5 c 0,-0.3 -0.1,-0.5 -0.2,-0.6 -0.1,-0.1 -0.3,-0.2 -0.6,-0.2 -0.2,0 -0.4,0 -0.5,0.2 -0.1,0.2 -0.3,0.3 -0.4,0.4 v 2.6 h -0.6 v -3.7 z"
   id="path118" />
		<path
   class="st1"
   d="m 263.6,401.3 c -0.5,0 -0.9,-0.2 -1.2,-0.5 -0.3,-0.3 -0.5,-0.8 -0.5,-1.3 v -0.1 c 0,-0.4 0.1,-0.7 0.2,-1 0.1,-0.3 0.3,-0.5 0.6,-0.7 0.3,-0.2 0.5,-0.2 0.8,-0.2 0.5,0 0.9,0.2 1.1,0.5 0.3,0.3 0.4,0.8 0.4,1.4 v 0.3 h -2.5 c 0,0.4 0.1,0.7 0.3,0.9 0.2,0.2 0.5,0.3 0.8,0.3 0.2,0 0.4,0 0.6,-0.1 0.2,-0.1 0.3,-0.2 0.4,-0.4 l 0.4,0.3 c -0.3,0.4 -0.8,0.6 -1.4,0.6 z m -0.1,-3.3 c -0.3,0 -0.5,0.1 -0.6,0.3 -0.1,0.2 -0.3,0.5 -0.3,0.8 h 1.9 v 0 c 0,-0.3 -0.1,-0.6 -0.3,-0.8 -0.2,-0.2 -0.4,-0.3 -0.7,-0.3 z"
   id="path120" />
	</g>
	<line
   class="st6"
   x1="213.7"
   y1="392.70001"
   x2="228.39999"
   y2="392.70001"
   id="line124" />
	<g
   id="g172">
		<rect
   x="214.7"
   y="237.8"
   class="st7"
   width="153.89999"
   height="40.299999"
   id="rect126" />
		<path
   class="st1"
   d="m 215.6,245.3 v -7.1 h 2.1 c 0.8,0 1.3,0.2 1.7,0.5 0.4,0.3 0.6,0.8 0.6,1.4 0,0.4 -0.1,0.7 -0.3,1 -0.2,0.3 -0.5,0.5 -0.8,0.6 0.4,0.1 0.8,0.3 1,0.6 0.2,0.3 0.4,0.7 0.4,1.1 0,0.6 -0.2,1.1 -0.6,1.5 -0.4,0.4 -1,0.5 -1.7,0.5 z m 0.6,-3.9 h 1.6 c 0.5,0 0.9,-0.1 1.2,-0.4 0.3,-0.2 0.4,-0.6 0.4,-1 0,-0.5 -0.1,-0.8 -0.4,-1 -0.3,-0.2 -0.7,-0.3 -1.3,-0.3 h -1.5 z m 0,0.5 v 2.9 h 1.8 c 0.5,0 0.9,-0.1 1.2,-0.4 0.3,-0.3 0.4,-0.6 0.4,-1.1 0,-0.4 -0.1,-0.8 -0.4,-1 -0.3,-0.3 -0.7,-0.4 -1.2,-0.4 z"
   id="path128" />
		<path
   class="st1"
   d="m 225.8,243.3 h -3.2 l -0.7,2 h -0.6 l 2.7,-7.1 h 0.6 l 2.7,7.1 h -0.6 z m -3,-0.5 h 2.8 l -1.4,-3.9 z"
   id="path130" />
		<path
   class="st1"
   d="m 233.4,243.1 c -0.1,0.8 -0.4,1.3 -0.8,1.7 -0.4,0.4 -1.1,0.6 -1.8,0.6 -0.5,0 -1,-0.1 -1.4,-0.4 -0.4,-0.3 -0.7,-0.6 -0.9,-1.1 -0.2,-0.5 -0.3,-1 -0.3,-1.7 v -0.9 c 0,-0.6 0.1,-1.2 0.3,-1.7 0.2,-0.5 0.5,-0.9 0.9,-1.1 0.4,-0.3 0.9,-0.4 1.4,-0.4 0.8,0 1.4,0.2 1.8,0.6 0.4,0.4 0.7,1 0.8,1.7 h -0.6 c -0.2,-1.2 -0.8,-1.8 -2,-1.8 -0.6,0 -1.2,0.2 -1.5,0.7 -0.4,0.5 -0.6,1.1 -0.6,2 v 0.9 c 0,0.8 0.2,1.5 0.6,2 0.4,0.5 0.9,0.7 1.5,0.7 0.6,0 1.1,-0.1 1.4,-0.4 0.3,-0.3 0.5,-0.8 0.6,-1.4 z"
   id="path132" />
		<path
   class="st1"
   d="m 236.6,241.8 -1,1 v 2.5 H 235 v -7.1 h 0.6 v 3.8 l 3.6,-3.8 h 0.8 l -3,3.2 3.2,3.9 h -0.7 z"
   id="path134" />
		<path
   class="st1"
   d="m 241.6,245.3 v -7.1 h 2.1 c 0.8,0 1.3,0.2 1.7,0.5 0.4,0.3 0.6,0.8 0.6,1.4 0,0.4 -0.1,0.7 -0.3,1 -0.2,0.3 -0.5,0.5 -0.8,0.6 0.4,0.1 0.8,0.3 1,0.6 0.2,0.3 0.4,0.7 0.4,1.1 0,0.6 -0.2,1.1 -0.6,1.5 -0.4,0.4 -1,0.5 -1.7,0.5 z m 0.6,-3.9 h 1.6 c 0.5,0 0.9,-0.1 1.2,-0.4 0.3,-0.2 0.4,-0.6 0.4,-1 0,-0.5 -0.1,-0.8 -0.4,-1 -0.3,-0.2 -0.7,-0.3 -1.3,-0.3 h -1.5 z m 0,0.5 v 2.9 h 1.8 c 0.5,0 0.9,-0.1 1.2,-0.4 0.3,-0.3 0.4,-0.6 0.4,-1.1 0,-0.4 -0.1,-0.8 -0.4,-1 -0.3,-0.3 -0.7,-0.4 -1.2,-0.4 z"
   id="path136" />
		<path
   class="st1"
   d="m 253.1,242.1 c 0,0.6 -0.1,1.2 -0.3,1.7 -0.2,0.5 -0.6,0.9 -1,1.1 -0.4,0.3 -0.9,0.4 -1.5,0.4 -0.8,0 -1.5,-0.3 -2,-0.9 -0.5,-0.6 -0.8,-1.4 -0.8,-2.4 v -0.7 c 0,-0.6 0.1,-1.2 0.3,-1.7 0.2,-0.5 0.6,-0.9 1,-1.1 0.4,-0.2 0.9,-0.4 1.4,-0.4 0.5,0 1,0.1 1.4,0.4 0.4,0.3 0.7,0.6 1,1.1 0.3,0.5 0.3,1 0.4,1.7 z m -0.6,-0.8 c 0,-0.9 -0.2,-1.5 -0.6,-2 -0.4,-0.5 -0.9,-0.7 -1.6,-0.7 -0.7,0 -1.2,0.2 -1.6,0.7 -0.4,0.5 -0.6,1.2 -0.6,2 v 0.7 c 0,0.8 0.2,1.5 0.6,2 0.4,0.5 0.9,0.7 1.6,0.7 0.7,0 1.2,-0.2 1.6,-0.7 0.4,-0.5 0.6,-1.2 0.6,-2 0,0.1 0,-0.7 0,-0.7 z"
   id="path138" />
		<path
   class="st1"
   d="m 260.1,245.3 h -0.6 l -4.1,-6.1 v 6.1 h -0.6 v -7.1 h 0.6 l 4.1,6.1 v -6.1 h 0.6 z"
   id="path140" />
		<path
   class="st1"
   d="m 266.1,241.9 h -3.3 v 2.9 h 3.8 v 0.5 h -4.4 v -7.1 h 4.4 v 0.5 h -3.8 v 2.7 h 3.3 z"
   id="path142" />
		<path
   class="st1"
   d="m 275.9,242.1 c 0,0.6 -0.1,1.2 -0.3,1.7 -0.2,0.5 -0.5,0.9 -1,1.1 -0.4,0.3 -0.9,0.4 -1.5,0.4 -0.8,0 -1.5,-0.3 -2,-0.9 -0.5,-0.6 -0.8,-1.4 -0.8,-2.4 v -0.7 c 0,-0.6 0.1,-1.2 0.3,-1.7 0.2,-0.5 0.5,-0.9 1,-1.1 0.5,-0.2 0.9,-0.4 1.4,-0.4 0.6,0 1,0.1 1.5,0.4 0.4,0.3 0.7,0.6 1,1.1 0.3,0.5 0.4,1 0.4,1.7 z m -0.6,-0.8 c 0,-0.9 -0.2,-1.5 -0.6,-2 -0.4,-0.5 -0.9,-0.7 -1.6,-0.7 -0.7,0 -1.2,0.2 -1.6,0.7 -0.4,0.5 -0.6,1.2 -0.6,2 v 0.7 c 0,0.8 0.2,1.5 0.6,2 0.4,0.5 0.9,0.7 1.6,0.7 0.7,0 1.2,-0.2 1.6,-0.7 0.4,-0.5 0.6,-1.2 0.6,-2 0,0.1 0,-0.7 0,-0.7 z"
   id="path144" />
		<path
   class="st1"
   d="m 281.6,242 h -3.3 v 3.3 h -0.6 v -7.1 h 4.4 v 0.5 h -3.8 v 2.8 h 3.3 z"
   id="path146" />
		<path
   class="st1"
   d="m 220.9,253.8 c 0,0.6 -0.1,1.2 -0.3,1.7 -0.2,0.5 -0.6,0.9 -1,1.1 -0.4,0.3 -0.9,0.4 -1.5,0.4 -0.8,0 -1.5,-0.3 -2,-0.9 -0.5,-0.6 -0.8,-1.4 -0.8,-2.4 V 253 c 0,-0.6 0.1,-1.2 0.3,-1.7 0.2,-0.5 0.6,-0.9 1,-1.1 0.4,-0.2 0.9,-0.4 1.4,-0.4 0.5,0 1,0.1 1.4,0.4 0.4,0.3 0.7,0.6 1,1.1 0.3,0.5 0.3,1 0.4,1.7 z m -0.6,-0.7 c 0,-0.9 -0.2,-1.5 -0.6,-2 -0.4,-0.5 -0.9,-0.7 -1.6,-0.7 -0.7,0 -1.2,0.2 -1.6,0.7 -0.4,0.5 -0.6,1.2 -0.6,2 v 0.7 c 0,0.8 0.2,1.5 0.6,2 0.4,0.5 0.9,0.7 1.6,0.7 0.7,0 1.2,-0.2 1.6,-0.7 0.4,-0.5 0.6,-1.2 0.6,-2 0,0 0,-0.7 0,-0.7 z"
   id="path148" />
		<path
   class="st1"
   d="m 227.5,249.9 v 4.9 c 0,0.5 -0.1,0.9 -0.3,1.3 -0.2,0.4 -0.5,0.6 -0.9,0.8 -0.4,0.2 -0.8,0.3 -1.3,0.3 -0.8,0 -1.3,-0.2 -1.8,-0.6 -0.5,-0.4 -0.7,-1 -0.7,-1.7 V 250 h 0.6 v 4.8 c 0,0.6 0.2,1.1 0.5,1.4 0.3,0.3 0.8,0.5 1.4,0.5 0.6,0 1.1,-0.2 1.4,-0.5 0.3,-0.3 0.5,-0.8 0.5,-1.4 V 250 Z"
   id="path150" />
		<path
   class="st1"
   d="m 232,254 h -2 v 3 h -0.6 v -7.1 h 2.3 c 0.8,0 1.4,0.2 1.8,0.6 0.4,0.4 0.6,0.9 0.6,1.5 0,0.5 -0.1,0.9 -0.4,1.2 -0.3,0.4 -0.6,0.6 -1.1,0.7 l 1.8,3 v 0.1 h -0.6 z m -2,-0.5 h 1.8 c 0.5,0 0.9,-0.1 1.2,-0.4 0.3,-0.3 0.5,-0.7 0.5,-1.1 0,-0.5 -0.2,-0.9 -0.5,-1.2 -0.3,-0.3 -0.8,-0.4 -1.3,-0.4 H 230 Z"
   id="path152" />
		<path
   class="st1"
   d="m 238.6,257 v -7.1 h 2 c 0.6,0 1.1,0.1 1.6,0.4 0.5,0.3 0.8,0.6 1.1,1.1 0.3,0.5 0.4,1.1 0.4,1.7 v 0.6 c 0,0.6 -0.1,1.2 -0.4,1.7 -0.3,0.5 -0.6,0.9 -1.1,1.1 -0.5,0.3 -1,0.4 -1.6,0.4 h -2 z m 0.6,-6.6 v 6.1 h 1.4 c 0.8,0 1.3,-0.3 1.8,-0.8 0.5,-0.5 0.7,-1.2 0.7,-2 v -0.6 c 0,-0.8 -0.2,-1.5 -0.7,-2 -0.5,-0.5 -1,-0.7 -1.8,-0.7 z"
   id="path154" />
		<path
   class="st1"
   d="M 250.6,257 H 250 l -4.1,-6.1 v 6.1 h -0.6 v -7.1 h 0.6 l 4.1,6.1 v -6.1 h 0.6 c 0,0 0,7.1 0,7.1 z"
   id="path156" />
		<path
   class="st1"
   d="m 256.5,255 h -3.2 l -0.7,2 H 252 l 2.7,-7.1 h 0.6 l 2.7,7.1 h -0.6 z m -3,-0.5 h 2.8 l -1.4,-3.9 z"
   id="path158" />
		<path
   class="st1"
   d="m 258.9,256.7 c 0,-0.1 0,-0.2 0.1,-0.3 0.1,-0.1 0.2,-0.1 0.3,-0.1 0.1,0 0.2,0 0.3,0.1 0.1,0.1 0.1,0.2 0.1,0.3 0,0.1 0,0.2 -0.1,0.3 -0.1,0.1 -0.2,0.1 -0.3,0.1 -0.1,0 -0.2,0 -0.3,-0.1 -0.1,-0.1 -0.1,-0.2 -0.1,-0.3 z m 0,-4.5 c 0,-0.1 0,-0.2 0.1,-0.3 0.1,-0.1 0.2,-0.1 0.3,-0.1 0.1,0 0.2,0 0.3,0.1 0.1,0.1 0.1,0.2 0.1,0.3 0,0.1 0,0.2 -0.1,0.3 -0.1,0.1 -0.2,0.1 -0.3,0.1 -0.1,0 -0.2,0 -0.3,-0.1 -0.1,-0.1 -0.1,-0.2 -0.1,-0.3 z"
   id="path160" />
		<path
   class="st1"
   d="m 265.4,255.1 0.2,1.1 0.3,-1.1 1.5,-5.2 h 0.5 l 1.5,5.2 0.3,1.1 0.2,-1.1 1.3,-5.2 h 0.6 L 270,257 h -0.6 l -1.6,-5.6 -0.2,-0.7 -0.2,0.7 -1.7,5.6 h -0.6 l -1.8,-7.1 h 0.6 z"
   id="path162" />
		<path
   class="st1"
   d="m 276.9,255 h -3.2 l -0.7,2 h -0.6 l 2.7,-7.1 h 0.6 l 2.7,7.1 h -0.6 z m -3.1,-0.5 h 2.9 l -1.4,-3.9 z"
   id="path164" />
		<path
   class="st1"
   d="m 283.7,250.4 h -2.4 v 6.6 h -0.6 v -6.6 h -2.4 v -0.5 h 5.5 v 0.5 z"
   id="path166" />
		<path
   class="st1"
   d="m 288.9,253.6 h -3.3 v 2.9 h 3.8 V 257 H 285 v -7.1 h 4.4 v 0.5 h -3.8 v 2.7 h 3.3 z"
   id="path168" />
		<path
   class="st1"
   d="m 293.6,254 h -2.1 v 3 h -0.6 v -7.1 h 2.3 c 0.8,0 1.4,0.2 1.8,0.6 0.4,0.4 0.6,0.9 0.6,1.5 0,0.5 -0.1,0.9 -0.4,1.2 -0.3,0.4 -0.6,0.6 -1.1,0.7 l 1.8,3 v 0.1 h -0.6 z m -2.1,-0.5 h 1.8 c 0.5,0 0.9,-0.1 1.2,-0.4 0.3,-0.3 0.5,-0.7 0.5,-1.1 0,-0.5 -0.2,-0.9 -0.5,-1.2 -0.3,-0.3 -0.8,-0.4 -1.3,-0.4 h -1.7 z"
   id="path170" />
	</g>
	<circle
   class="st8"
   cx="214.7"
   cy="287.10001"
   r="2.7"
   id="circle174" />
	<circle
   class="st9"
   cx="214.7"
   cy="313.79999"
   r="2.7"
   id="circle176" />
	<circle
   class="st10"
   cx="214.7"
   cy="340.5"
   r="2.7"
   id="circle178" />
	<circle
   class="st11"
   cx="214.7"
   cy="367.29999"
   r="2.7"
   id="circle180" />
</g>
</svg>
