<?xml version="1.0" encoding="UTF-8"?>
<svg width="177.83" height="222.33" viewBox="0 0 177.83 222.33" xmlns="http://www.w3.org/2000/svg">
  <circle cx="69.863" cy="107.86" r="68.8" fill="#eaf1f3" opacity=".53"/>
  <circle cx="324.7" cy="417.9" r="17.7" fill="none" stroke="#b67339" stroke-linecap="round" stroke-linejoin="round" stroke-miterlimit="10" stroke-width="2.126" transform="translate(-165.74 -399.14)"/>
  <circle cx="158.96" cy="18.763" r="5.8" fill="none" stroke="#fff" stroke-linecap="round" stroke-linejoin="round" stroke-miterlimit="10" stroke-width=".9921"/>
  <circle cx="159.86" cy="203.56" r="5.8" fill="none" stroke="#fff" stroke-linecap="round" stroke-linejoin="round" stroke-miterlimit="10" stroke-width=".9921"/>
  <g transform="translate(-165.74 -399.14)" fill="none" stroke-linecap="round" stroke-linejoin="round" stroke-miterlimit="10">
    <circle cx="324.8" cy="602.7" r="17.7" stroke="#b67339" stroke-width="2.126"/>
    <path stroke="#b67339" stroke-width="2.126" d="m284.3 458.4 28-28.1M313 589.7l-30.4-32.4"/>
    <circle cx="235.6" cy="507" r="68.8" stroke="#b67339" stroke-width="2.126"/>
    <g stroke-width=".6937">
      <circle cx="235.6" cy="507" r="37.8" stroke="#fff"/>
      <circle cx="235.6" cy="507" r="34.7" stroke="#fff"/>
      <circle cx="235.6" cy="507" r="31.7" stroke="#b67339"/>
      <circle cx="235.6" cy="507" r="28.6" stroke="#fff"/>
    </g>
  </g>
  <g fill="none" stroke-linecap="round" stroke-linejoin="round" stroke-miterlimit="10">
    <g stroke-width=".6937">
      <circle cx="69.863" cy="107.86" r="3.8" stroke="#fff"/>
      <circle cx="69.863" cy="107.86" r="6.1" stroke="#fff"/>
      <circle cx="69.863" cy="107.86" r="13.4" stroke="#b67339"/>
      <circle cx="69.863" cy="107.86" r="15.3" stroke="#fff"/>
    </g>
    <g stroke="#b67339">
      <circle cx="69.863" cy="107.86" r="19" stroke-width=".6937"/>
      <circle cx="69.863" cy="107.86" r="20.8" stroke-width=".6937"/>
      <circle cx="69.863" cy="107.86" r="40.9" stroke-width=".647"/>
    </g>
    <circle cx="69.863" cy="107.86" r="6.1" stroke="#fff" stroke-width="1.1027"/>
    <circle cx="69.863" cy="107.86" r="9.6" stroke="#fff" stroke-width="1.1027"/>
  </g>
  <g transform="translate(-165.74 -399.14)" fill="none" stroke="#b67339" stroke-linecap="round" stroke-linejoin="round" stroke-miterlimit="10">
    <circle cx="235.6" cy="507" r="61" stroke-width=".7265"/>
    <circle cx="235.6" cy="507" r="63.5" stroke-width=".7146"/>
    <circle cx="235.6" cy="507" r="65.9" stroke-width=".7027"/>
  </g>
</svg>
